<svg width="179" height="28" fill="none" xmlns="http://www.w3.org/2000/svg"><path d="M24.328 14.023a9.33 9.33 0 01-1.58 5.233 9.474 9.474 0 01-4.253 3.48 9.587 9.587 0 01-5.49.553 9.528 9.528 0 01-4.874-2.563 9.37 9.37 0 01-2.61-4.812 9.31 9.31 0 01.533-5.436 9.42 9.42 0 013.498-4.225 9.566 9.566 0 015.281-1.586 9.53 9.53 0 016.706 2.736 9.335 9.335 0 012.789 6.628" fill="#fff"/><path fill-rule="evenodd" clip-rule="evenodd" d="M6.196 23.617l-2.897-1.333-.536-3.194 2.748-1.905 4.783.083-1.264 4.254-2.834 2.095zM23.472 4.36l2.897 1.333.534 3.196-2.748 1.905-4.783-.087 1.266-4.25 2.834-2.096zm-7.548-3.116l3.13-.63 2.363 2.247-1.054 3.143-3.892 2.747-1.554-4.159 1.007-3.348zM8.328 3.045l2.12-2.359 3.262.406 1.064 3.14-1.45 4.498-3.77-2.411-1.226-3.274zM2.937 8.747l.405-3.125 2.929-1.474 2.67 2.003 1.37 4.524-4.49.098-2.884-2.026zm10.778 17.965l-3.122.67-2.392-2.22 1.01-3.153 3.86-2.796 1.608 4.136-.964 3.363zm7.728-1.588l-2.173 2.31-3.248-.47-1-3.162 1.54-4.466 3.721 2.487 1.16 3.301zm5.282-5.921l-.379 3.126-2.916 1.5-2.69-1.982-1.409-4.51 4.49-.136 2.904 2.002zM2.232 16.79L.667 14.04l1.457-2.907 3.356.04 3.833 2.82L5.77 16.72l-3.538.07zm25.283 0l1.563-2.75-1.457-2.907-3.356.04-3.837 2.82 3.547 2.726 3.54.07z" fill="#fff"/><path d="M2.223 16.625h25.342L28.915 14l-1.345-2.63-25.347-.01L.831 14l1.392 2.625zm25.798.737h-.227l-26.02-.01L0 14l1.776-3.365h26.248L29.744 14l-1.723 3.362z" fill="#7E8185"/><path d="M16.113 26.733l2.95.484 2.144-2.055-7.56-23.854L10.68.79 8.557 2.878l7.556 23.855zM19.307 28l-3.765-.624L7.717 2.67 10.425 0l3.797.667 7.825 24.716L19.307 28z" fill="#7E8185"/><path d="M8.478 25.134l2.138 2.062 2.95-.468 7.683-23.82-2.13-2.11-2.95.519-7.69 23.817zm1.886 2.843l-2.722-2.639L15.596.671l3.788-.659 2.719 2.695-7.958 24.667-3.78.604z" fill="#7E8185"/><path d="M3.475 22.082l2.65 1.36 20.574-14.59-.433-2.94-2.68-1.332L3.008 19.173l.466 2.909zm2.712 2.216L2.794 22.56l-.587-3.721.187-.128 21.13-14.98 3.428 1.692.552 3.76-.183.13L6.187 24.298z" fill="#7E8185"/><path d="M3.143 8.642l20.301 14.964 2.675-1.313.515-2.902L6.34 4.425 3.62 5.718l-.477 2.924zM23.365 24.46L2.342 8.957l.611-3.73 3.47-1.654L27.445 19.07l-.655 3.711-3.425 1.678z" fill="#7E8185"/><path fill-rule="evenodd" clip-rule="evenodd" d="M14.88 10.758l1.353-.882.572 1.499 1.622.07-.43 1.544 1.268.999-1.268.997.43 1.545-1.622.071-.572 1.499-1.353-.884-1.353.884-.573-1.499-1.622-.07.431-1.546-1.266-.997 1.266-1-.431-1.543 1.622-.07.573-1.499 1.353.882z" fill="#fff"/><path d="M14.88 16.99l1.26.821.523-1.395 1.504-.067-.399-1.431 1.177-.93-1.177-.928.399-1.437-1.504-.065-.524-1.383-1.259.818-1.259-.825-.524 1.383-1.505.066.398 1.436-1.175.928 1.175.93-.398 1.431 1.505.078.524 1.395 1.26-.825zm1.451 1.397l-1.45-.93-1.452.938-.615-1.602-1.73-.076.459-1.65-1.357-1.07 1.357-1.069-.46-1.659 1.731-.08.615-1.603 1.451.943 1.451-.943.608 1.604 1.736.08-.463 1.65 1.359 1.068-1.359 1.07.473 1.65-1.746.076-.608 1.603z" fill="#fff"/><path d="M14.372 15.616l.524.992.513-.999 1.018.5L16.253 15l1.12-.189-.806-.79.796-.802-1.122-.17.174-1.11-1.013.518-.524-.994-.513 1.003-1.015-.501.175 1.11-1.126.18.808.792-.808.799 1.124.173-.174 1.11 1.023-.514zm.524 1.416l-.61-1.158-1.175.592.194-1.289-1.306-.197.924-.93-.936-.914 1.304-.218-.213-1.291 1.182.582.596-1.166.613 1.158 1.177-.597-.192 1.29 1.304.197-.924.932.934.915-1.3.217.214 1.289-1.187-.582-.6 1.17z" fill="#7E8185"/><path d="M14.978 11.091h-.192v5.884h.192V11.09z" fill="#7E8185"/><path d="M17.763 13.938h-5.806v.192h5.806v-.192z" fill="#7E8185"/><path d="M12.612 15.868l-.116-.153 4.625-3.497.118.15-4.627 3.5z" fill="#7E8185"/><path d="M17.2 15.73l-4.75-3.234.111-.155 4.752 3.232-.112.157z" fill="#7E8185"/><path d="M15.729 16.802l-1.88-5.476.18-.06 1.883 5.475-.183.06z" fill="#7E8185"/><path d="M16.557 16.456l-3.51-4.73.157-.115 3.506 4.733-.153.112z" fill="#7E8185"/><path d="M14.09 16.726l-.184-.06 1.78-5.385.186.06-1.781 5.385z" fill="#7E8185"/><path d="M13.253 16.456l-.161-.109 3.42-4.732.158.11-3.417 4.731z" fill="#7E8185"/><path d="M17.67 14.996l-5.642-1.74.058-.182 5.648 1.742-.063.18z" fill="#7E8185"/><path d="M12.135 15.037l-.061-.18 5.548-1.825.064.182-5.551 1.823z" fill="#7E8185"/><path d="M13.193 16.326l1.687.538 1.687-.538 1.04-1.419V13.16l-1.04-1.407-1.687-.537-1.687.537-1.048 1.416v1.738l1.048 1.42zm1.687.74l-1.807-.58-1.116-1.513v-1.875l1.116-1.518 1.807-.575 1.807.575 1.125 1.518v1.875l-1.116 1.512-1.816.581z" fill="#7E8185"/><path d="M42.61 10.329l-2.197-5.002-2.258 5.002h4.454zm.37.793h-5.204l-.618 1.414c-.18.364-.286.76-.311 1.163a.952.952 0 00.5.9c.192.116.672.202 1.442.258v.396h-4.89v-.389c.496-.062.955-.29 1.301-.648.35-.346.76-1.082 1.262-2.19L41.727.43h.208l5.308 11.91c.512 1.128.929 1.838 1.253 2.132.294.242.664.378 1.047.385v.396h-7.125v-.389h.294c.57 0 .978-.078 1.206-.235a.574.574 0 00.238-.492 1.316 1.316 0 00-.065-.395c-.014-.064-.124-.333-.326-.807l-.784-1.813zm11.77-5.883v1.319c.44-.505.965-.931 1.55-1.26a3.408 3.408 0 011.556-.358 2.852 2.852 0 011.642.45c.474.343.831.822 1.023 1.371a6.355 6.355 0 011.668-1.393 3.475 3.475 0 011.668-.428c.698 0 1.259.159 1.674.475.41.305.714.728.873 1.21.165.487.248 1.274.248 2.342v4.103c0 .773.067 1.25.21 1.435.143.185.435.307.882.363v.385h-5.239v-.389a1.181 1.181 0 00.913-.468c.13-.194.198-.636.198-1.33v-4.3c0-.894-.039-1.46-.109-1.705a1.016 1.016 0 00-.349-.539.869.869 0 00-.548-.173c-.344.01-.676.129-.949.337a4.255 4.255 0 00-.96 1.012v5.373c0 .72.056 1.175.175 1.362.164.263.483.41.951.436v.385H56.58v-.389c.24 0 .474-.073.67-.209a.896.896 0 00.325-.45c.072-.374.1-.757.082-1.138V8.765c0-.908-.036-1.478-.11-1.705a1.037 1.037 0 00-.365-.534.879.879 0 00-.544-.193 1.471 1.471 0 00-.799.225 4.563 4.563 0 00-1.086 1.133v5.38c0 .708.072 1.173.213 1.397.142.225.433.358.887.4v.385h-5.239v-.389c.432-.041.734-.173.914-.406.122-.159.185-.619.185-1.383v-5.66c0-.76-.073-1.227-.217-1.414-.143-.187-.433-.308-.882-.366v-.396h4.136zm19.923 7.755V9.64c-.873.519-1.53 1.053-1.956 1.634-.263.336-.41.746-.42 1.171a1.23 1.23 0 00.349.865 1.002 1.002 0 00.761.288c.365 0 .782-.204 1.26-.601l.006-.002zM76.763.581h.577c0 .145.008.266.008.363 0 .788-.227 1.42-.67 1.9a2.14 2.14 0 01-1.633.72c-.466 0-1.058-.168-1.778-.505-.71-.332-1.189-.503-1.425-.503a.733.733 0 00-.536.21c-.146.14-.246.399-.305.772h-.626c-.029-.931.186-1.66.645-2.188a2.168 2.168 0 011.7-.792c.183-.004.366.017.544.064.358.12.708.262 1.048.427.735.334 1.27.507 1.589.507a.692.692 0 00.457-.194c.197-.226.338-.494.412-.783l-.007.002zm-2.095 13.2c-1.238 1.073-2.349 1.615-3.336 1.615a1.968 1.968 0 01-1.88-1.208 1.885 1.885 0 01-.142-.764c0-.763.334-1.45 1.003-2.061.668-.611 2.12-1.424 4.355-2.438V7.918c0-.759-.044-1.234-.124-1.431a1.182 1.182 0 00-.475-.519 1.45 1.45 0 00-.78-.22 2.049 2.049 0 00-1.162.312.556.556 0 00-.283.45c.032.215.14.412.304.557.242.237.389.554.412.89a1.15 1.15 0 01-.398.892 1.46 1.46 0 01-1.036.372 1.666 1.666 0 01-1.138-.406 1.243 1.243 0 01-.463-.954c.016-.548.236-1.07.618-1.466a3.92 3.92 0 011.729-1.075 7.051 7.051 0 012.302-.375c.964 0 1.725.199 2.287.603.563.405.926.842 1.092 1.312.101.304.155.992.155 2.074v3.889c-.015.289.002.579.05.864.025.1.08.191.16.26a.399.399 0 00.255.086c.174 0 .379-.131.573-.396l.326.256c-.29.455-.674.845-1.126 1.144a2.465 2.465 0 01-1.317.36c-.582 0-1.032-.135-1.36-.402a1.82 1.82 0 01-.596-1.216l-.005.002zm9.678-8.542v1.294c.43-.48.937-.889 1.5-1.21a3.238 3.238 0 011.544-.38 2.461 2.461 0 011.64.543c.426.345.731.814.873 1.341.12.406.174 1.191.174 2.346v3.897c0 .773.073 1.252.215 1.438.141.187.435.311.885.36v.385H86.02v-.389a1.079 1.079 0 00.83-.468c.112-.173.175-.62.175-1.33V8.614c0-.82-.034-1.338-.1-1.556a.945.945 0 00-.33-.49.835.835 0 00-.524-.172c-.621 0-1.198.44-1.746 1.317v5.358c0 .748.072 1.227.216 1.426.145.199.404.323.785.372v.385H80.2v-.389c.428-.041.734-.173.915-.406.124-.159.184-.619.184-1.383v-5.66c0-.76-.07-1.227-.212-1.414-.141-.187-.436-.308-.887-.366V5.24h4.146zm13.824 7.755V9.64c-.874.519-1.529 1.053-1.956 1.634a1.96 1.96 0 00-.428 1.171c.002.324.132.634.361.865a.99.99 0 00.758.288c.363 0 .784-.204 1.264-.601v-.002zm0 .787c-1.24 1.073-2.353 1.615-3.336 1.615a1.975 1.975 0 01-1.444-.565 1.878 1.878 0 01-.58-1.407c0-.763.333-1.45.999-2.061.672-.614 2.122-1.425 4.366-2.438V7.918c0-.759-.042-1.234-.126-1.431a1.188 1.188 0 00-.47-.519 1.482 1.482 0 00-.782-.22 2.063 2.063 0 00-1.167.312.56.56 0 00-.283.45c0 .151.102.345.306.557.242.237.388.554.409.89a1.165 1.165 0 01-.391.892 1.47 1.47 0 01-1.048.372c-.42.01-.829-.134-1.146-.406a1.25 1.25 0 01-.457-.954 2.217 2.217 0 01.618-1.466A3.931 3.931 0 0195.36 5.32a7.1 7.1 0 012.309-.375c.96 0 1.725.199 2.284.603.559.405.926.842 1.095 1.312.096.304.147.992.147 2.074v3.889c-.015.29.004.58.057.864a.53.53 0 00.163.26.39.39 0 00.25.086c.186 0 .382-.131.572-.396l.329.256a3.86 3.86 0 01-1.127 1.144 2.451 2.451 0 01-1.316.36c-.58 0-1.032-.135-1.357-.402a1.813 1.813 0 01-.598-1.216v.002zM106.365.382h13.462l.021 4.457h-.643c-.212-1.597-.816-2.677-1.814-3.24-.561-.31-1.398-.478-2.511-.508v11.663c0 .814.145 1.353.431 1.621.286.268.887.4 1.797.4v.561h-7.965v-.562c.873 0 1.453-.136 1.746-.408.294-.271.432-.805.432-1.612V1.096c-1.093.03-1.921.199-2.511.508-1.069.576-1.673 1.656-1.813 3.24h-.648l.016-4.462zm18.187 13.366c.228-.181.436-.384.624-.605v-3.24a4.591 4.591 0 00-1.572.68c-.766.53-1.145 1.2-1.145 2.015 0 .486.11.853.331 1.1a.976.976 0 00.748.375c.364 0 .719-.114 1.014-.325zm-3.896-2.849c.968-.583 2.485-1.172 4.553-1.766V7.525c0-.656-.138-1.14-.419-1.453-.281-.313-.779-.47-1.491-.47a2 2 0 00-.987.22.653.653 0 00-.386.558.454.454 0 00.044.214c.034.067.078.13.131.185l.129.15c.102.122.185.258.246.405.062.15.093.31.093.473a1.184 1.184 0 01-.419.966c-.275.227-.622.35-.98.346-.4.01-.791-.124-1.099-.377a1.35 1.35 0 01-.45-1.089c0-.847.405-1.52 1.212-2.015.807-.494 1.8-.745 2.979-.745 1.266 0 2.328.244 3.178.726.851.482 1.266 1.383 1.266 2.701v5.358a.651.651 0 00.126.407.35.35 0 00.279.172.536.536 0 00.236-.05c.118-.072.226-.16.32-.262l.339.465a3.63 3.63 0 01-1.452 1.056c-.336.132-.696.2-1.058.197-.665 0-1.147-.192-1.451-.576a2.128 2.128 0 01-.386-.975 5.246 5.246 0 01-2.096 1.3 4.352 4.352 0 01-1.397.239 2.86 2.86 0 01-1.713-.58c-.524-.385-.796-.986-.796-1.8-.001-.997.482-1.788 1.449-2.372zm9.521 3.908c.305-.053.591-.182.833-.373.175-.156.246-.477.246-.968V2.188c0-.47-.076-.776-.228-.92a1.89 1.89 0 00-.851-.357V.382h4.191v9.53l2.84-2.826a1.75 1.75 0 00.36-.473.862.862 0 00.108-.346.426.426 0 00-.299-.442 4.54 4.54 0 00-1.021-.173v-.505h4.793v.508a5.127 5.127 0 00-1.096.235 4.23 4.23 0 00-1.398.953l-1.734 1.74 4.324 5.889a.7.7 0 00.253.242c.099.047.204.079.313.093v.529h-5.216v-.529c.238.001.475-.04.698-.12a.32.32 0 00.226-.302.765.765 0 00-.095-.297 6.692 6.692 0 00-.452-.691l-2.113-2.976-.491.539v2.508c0 .496.061.83.185.993.124.165.441.282.95.346v.529h-5.326v-.529zm17.992-1.059c.225-.184.431-.389.615-.612V9.904a4.591 4.591 0 00-1.572.679c-.765.53-1.149 1.2-1.149 2.015 0 .486.112.853.336 1.1a.986.986 0 00.747.375c.365-.001.72-.115 1.016-.325h.007zm-3.897-2.849c.966-.586 2.483-1.175 4.552-1.766V7.525c0-.656-.14-1.14-.421-1.453-.279-.316-.775-.47-1.491-.47a1.98 1.98 0 00-.985.22.65.65 0 00-.389.558.466.466 0 00.043.214.922.922 0 00.129.185l.133.15c.1.123.183.26.246.405.061.15.091.311.091.473a1.17 1.17 0 01-.419.966c-.274.227-.621.35-.978.346a1.65 1.65 0 01-1.096-.377 1.342 1.342 0 01-.453-1.089c0-.847.402-1.52 1.21-2.015.809-.494 1.804-.745 2.983-.745 1.267 0 2.326.242 3.177.726s1.273 1.384 1.266 2.701v5.358a.68.68 0 00.124.407.348.348 0 00.277.173.513.513 0 00.236-.05c.12-.072.229-.16.323-.263l.339.465a3.602 3.602 0 01-1.453 1.056 2.84 2.84 0 01-1.058.197c-.664 0-1.148-.192-1.453-.576a2.167 2.167 0 01-.381-.963 5.278 5.278 0 01-2.095 1.3c-.45.155-.922.235-1.397.239a2.847 2.847 0 01-1.712-.58c-.534-.385-.801-.986-.8-1.8-.001-1.005.483-1.8 1.452-2.384zm9.463 3.908c.459-.036.787-.135.988-.302.201-.168.299-.519.299-1.037V6.27h-1.287v-.972h1.287v-.822c0-1.029.166-1.877.494-2.54.62-1.237 1.764-1.856 3.43-1.857a4.032 4.032 0 012.252.6c.615.4.921.926.921 1.582a1.345 1.345 0 01-.385.994 1.429 1.429 0 01-1.032.373 1.312 1.312 0 01-.916-.345 1.095 1.095 0 01-.385-.831c.011-.276.097-.543.25-.773.107-.15.189-.317.245-.493a.334.334 0 00-.198-.345 1.173 1.173 0 00-.424-.075 1.1 1.1 0 00-.842.313c-.199.211-.295.66-.295 1.352v2.867h1.942v.972h-1.944v6.796c0 .764.112 1.232.334 1.405.222.173.714.287 1.479.335v.53h-6.213v-.53z" fill="#fff"/><path d="M165.449 5.147v7.51c-.018.337.042.673.174.983.191.367.564.552 1.125.552.375-.006.74-.123 1.048-.335a4.88 4.88 0 00.744-.616V6.962c0-.465-.095-.788-.278-.977-.183-.188-.559-.286-1.123-.309v-.529h4.455v7.973c0 .458.087.776.262.95.175.175.503.276 1.027.328v.508c-1.382.128-2.255.223-2.62.285-.585.12-1.162.273-1.729.46v-1.46a7.97 7.97 0 01-1.323.962 3.942 3.942 0 01-1.911.498 3.341 3.341 0 01-2.015-.692c-.622-.453-.932-1.26-.932-2.42V6.963c0-.472-.075-.783-.231-.928-.155-.145-.445-.263-.882-.358v-.529h4.209zm8.225 9.66a1.87 1.87 0 00.833-.373c.174-.156.246-.477.246-.966V2.197c0-.474-.077-.781-.23-.928a1.895 1.895 0 00-.849-.358V.382h4.235v13.086c0 .489.078.81.241.96.248.193.54.323.85.38v.528h-5.326v-.529zM35.83 27.23c.187-.014.367-.073.524-.174a1 1 0 00.281-.53l1.223-4.418a3.34 3.34 0 00.08-.315c.017-.073.025-.149.026-.224 0-.173-.045-.27-.141-.313a2.043 2.043 0 00-.587-.104v-.256h2.969v.256a1.132 1.132 0 00-.524.173 1.053 1.053 0 00-.276.536l-1.222 4.418-.077.345c0 .033-.012.064-.018.097a.604.604 0 000 .095c0 .164.046.271.135.315.19.063.388.099.588.105v.245h-2.968l-.013-.252zm7.324.252l.873-3.146c.032-.13.06-.23.077-.303.024-.094.04-.19.047-.287 0-.12-.038-.193-.111-.223a1.524 1.524 0 00-.432-.051v-.26c.409-.026.732-.055.96-.088.23-.033.568-.091 1.026-.173l-.592 1.822.028.016c-.018.013.082-.132.293-.441.177-.27.38-.521.606-.752.175-.184.374-.342.594-.47a1.31 1.31 0 01.651-.173.842.842 0 01.542.173.709.709 0 01.22.582c0 .25-.145.8-.435 1.653-.297.848-.444 1.305-.444 1.365a.172.172 0 00.054.135c.03.026.066.04.105.043.087 0 .217-.109.39-.326.106-.137.203-.28.293-.427l.224.138a5.07 5.07 0 01-.624.847 1.3 1.3 0 01-.934.448.769.769 0 01-.473-.154.567.567 0 01-.21-.488c.01-.207.044-.412.101-.612.068-.271.147-.546.233-.833l.455-1.472c.01-.033.016-.064.025-.09a.276.276 0 000-.076.16.16 0 00-.074-.154.308.308 0 00-.16-.045c-.203 0-.43.157-.674.47-.234.29-.438.603-.608.934-.166.334-.307.68-.423 1.035a35.8 35.8 0 00-.405 1.391l-1.198-.008zm8.664-1.497l.262.019c.047.482.174.822.373 1.018a.87.87 0 00.592.295.54.54 0 00.404-.159.534.534 0 00.15-.377.858.858 0 00-.135-.43 3.214 3.214 0 00-.312-.456l-.369-.456a2.473 2.473 0 01-.412-.607 1.545 1.545 0 01-.174-.692 1.126 1.126 0 01.373-.843 1.401 1.401 0 011.013-.354c.19.003.379.04.556.11.121.055.25.091.382.11a.244.244 0 00.175-.053.509.509 0 00.108-.153h.286l-.223 1.505-.264-.026a1.681 1.681 0 00-.35-.899.72.72 0 00-.523-.274.486.486 0 00-.409.172.569.569 0 00-.129.36c0 .121.033.24.094.345.111.176.234.345.367.505l.489.616c.116.15.213.313.288.487.083.178.127.372.128.569a1.179 1.179 0 01-.435.957 1.577 1.577 0 01-1.048.361 1.604 1.604 0 01-.564-.109 1.659 1.659 0 00-.361-.11.245.245 0 00-.186.066.633.633 0 00-.1.153H51.6l.217-1.65zm7.006.475a4.53 4.53 0 01.096-.4l.524-1.87a1.477 1.477 0 00.071-.399.243.243 0 00-.122-.247 1.16 1.16 0 00-.431-.069v-.26c.683-.061 1.19-.122 1.533-.172.342-.05.524-.087.554-.087l-.451 1.504-.48 1.516c-.021.07-.05.164-.077.277-.037.126-.06.256-.07.387a.23.23 0 00.063.173.24.24 0 00.175.057c.157 0 .365-.154.62-.458.296-.374.54-.787.72-1.228.146-.329.274-.665.385-1.007.077-.23.19-.6.339-1.108h1.177l-.381 1.364c-.014.05-.08.293-.203.729a30.4 30.4 0 00-.21.78c-.05.172-.093.326-.128.473a1.573 1.573 0 00-.053.3.206.206 0 00.044.143.151.151 0 00.115.05c.103 0 .241-.111.42-.336.099-.126.19-.258.272-.395l.207.126a3.194 3.194 0 01-.724.91c-.24.233-.56.368-.896.377a.65.65 0 01-.564-.22.655.655 0 01-.107-.395c-.002-.135.01-.27.039-.403.026-.107.085-.309.175-.601l-.023-.01a8.914 8.914 0 01-.896 1.154 1.418 1.418 0 01-.995.48.771.771 0 01-.439-.126.72.72 0 01-.318-.667c.004-.116.018-.232.044-.346m8.064 1.026c.273-.94.496-1.747.67-2.42.136-.424.236-.858.301-1.298a.224.224 0 00-.124-.235 1.107 1.107 0 00-.413-.052v-.26c.422-.026.779-.06 1.07-.101.192-.026.512-.08.964-.165l-.557 1.744.043.01a9.02 9.02 0 01.685-1.16c.3-.395.589-.595.873-.595a.491.491 0 01.428.192c.09.125.139.274.138.428a.89.89 0 01-.154.51.484.484 0 01-.426.226.554.554 0 01-.222-.048.45.45 0 01-.174-.145l-.093-.114a.173.173 0 00-.05-.049.105.105 0 00-.069-.019c-.127 0-.295.173-.497.508-.2.331-.373.678-.514 1.038-.097.243-.218.587-.361 1.037-.143.449-.248.77-.314.968h-1.204zm10.029-3.908a.347.347 0 00-.349-.222c-.35 0-.728.424-1.105 1.265-.334.746-.5 1.319-.5 1.719a.698.698 0 00.119.408.36.36 0 00.313.172c.328 0 .701-.433 1.119-1.3.299-.729.449-1.304.449-1.728a.875.875 0 00-.05-.313l.004-.001zm-2.305.535c.601-.777 1.214-1.166 1.834-1.166a.678.678 0 01.56.217c.091.139.155.292.189.453l.175-.518 1.037-.073-.65 2.299c-.09.325-.157.575-.195.75-.071.23-.115.466-.131.705a.147.147 0 00.04.121.12.12 0 00.087.033.283.283 0 00.175-.064c.068-.055.13-.117.185-.185a3.94 3.94 0 00.166-.202c.079-.1.14-.173.194-.245l.207.148c-.222.339-.484.65-.78.927-.195.2-.46.317-.74.33a.702.702 0 01-.442-.173.598.598 0 01-.215-.503c.025-.207.068-.41.127-.61.014-.012 0 .01-.034.069-.035.059-.097.142-.175.254-.167.255-.376.48-.618.667a1.265 1.265 0 01-.795.273 1.113 1.113 0 01-.733-.29c-.227-.197-.34-.529-.34-.996.003-.722.295-1.463.877-2.222l-.005.001zm7.24 3.373l.874-3.146.078-.303c.026-.094.043-.19.05-.287 0-.12-.04-.193-.114-.223a1.514 1.514 0 00-.428-.051v-.26c.412-.026.73-.055.957-.088a33.33 33.33 0 001.023-.173l-.587 1.822.025.016c-.018.013.083-.132.295-.441.177-.269.38-.52.604-.752.175-.183.375-.341.594-.47.199-.113.424-.172.653-.173a.828.828 0 01.54.173.704.704 0 01.223.582c0 .25-.146.8-.438 1.653-.296.848-.444 1.305-.444 1.365a.17.17 0 00.054.135c.03.026.067.041.107.043.085 0 .218-.109.39-.326.09-.114.188-.258.296-.427l.217.138c-.176.304-.383.59-.619.85a1.294 1.294 0 01-.934.448.761.761 0 01-.473-.154.564.564 0 01-.21-.487c.01-.208.044-.413.102-.612.07-.271.146-.546.234-.833l.45-1.473a.372.372 0 00.028-.09.275.275 0 00.009-.076.156.156 0 00-.073-.154.32.32 0 00-.165-.044c-.202 0-.426.156-.672.47a5.54 5.54 0 00-.608.933 7.37 7.37 0 00-.428 1.025c-.111.346-.25.809-.406 1.391l-1.204-.002zm9.409-3.526c.596-.676 1.245-1.015 1.944-1.015.305-.023.608.074.842.27a.834.834 0 01.244.885.665.665 0 01-.352.37.611.611 0 01-.243.046.635.635 0 01-.38-.135.448.448 0 01-.184-.389.41.41 0 01.024-.162c.026-.06.057-.117.09-.173l.044-.072a.343.343 0 00.05-.082.21.21 0 00.01-.062.139.139 0 00-.075-.126.363.363 0 00-.185-.045c-.356 0-.695.364-1.017 1.092a4.396 4.396 0 00-.428 1.694c-.004.197.04.392.126.569a.642.642 0 00.624.37.971.971 0 00.61-.234c.23-.189.429-.41.591-.658l.278.183c-.23.334-.496.643-.793.92a1.91 1.91 0 01-1.235.425 1.553 1.553 0 01-.997-.374c-.309-.252-.464-.634-.464-1.154a3.184 3.184 0 01.873-2.138m9.456-.583a.245.245 0 00-.23-.117c-.233 0-.463.188-.687.556a5.908 5.908 0 00-.599 1.556c.571-.13.978-.375 1.223-.74.211-.284.336-.622.359-.975a.638.638 0 00-.059-.285l-.007.005zm-2.06.595c.597-.691 1.25-1.037 1.962-1.037.273-.011.542.068.765.224a.752.752 0 01.302.64c0 .415-.233.808-.698 1.179a3.733 3.733 0 01-1.844.71c-.018.1-.034.192-.044.278-.01.087-.014.16-.014.211-.008.164.022.327.087.477a.594.594 0 00.6.323 1.008 1.008 0 00.712-.366c.154-.163.291-.341.408-.532l.29.173a3.917 3.917 0 01-.698.91 1.81 1.81 0 01-1.231.46 1.546 1.546 0 01-.989-.377c-.323-.252-.475-.629-.475-1.147 0-.743.287-1.45.86-2.121l.006-.005zm15.789-.156c.282-.172.421-.567.421-1.19.014-.31-.04-.618-.159-.904-.185-.372-.524-.562-1.011-.562a.897.897 0 00-.524.1.378.378 0 00-.101.148.37.37 0 00-.024.177v2.504c.652-.01 1.117-.101 1.397-.273h.001zm-3.883 3.416c.246.013.491-.052.698-.185.124-.113.185-.346.185-.712v-4.358c0-.378-.075-.627-.218-.741-.098-.078-.318-.13-.657-.157v-.251h3.201a5.113 5.113 0 011.612.207c.796.28 1.198.78 1.198 1.506a1.494 1.494 0 01-.629 1.265 2.45 2.45 0 01-1.014.44l2.115 2.804a.434.434 0 00.174.152.779.779 0 00.229.045v.233h-2.078l-2.319-3.078v1.93c0 .345.057.576.174.69.117.114.35.187.699.2v.259h-3.369l-.001-.25zm12.952-2.527a4.116 4.116 0 00-.136-1.21.493.493 0 00-.507-.346.536.536 0 00-.524.4c-.113.377-.169.77-.164 1.164l1.331-.008zm-2.115-1.243a1.967 1.967 0 011.472-.63c.327 0 .647.089.926.257.285.167.516.412.665.705.131.28.213.58.243.886.019.129.03.258.033.388h-2.539c.014.349.079.694.194 1.025.197.54.538.812 1.028.812a1.13 1.13 0 00.659-.218c.175-.127.334-.274.475-.437l.228.14c-.249.44-.62.8-1.07 1.037a2.086 2.086 0 01-.905.187 2.026 2.026 0 01-1.376-.57c-.429-.382-.643-.99-.642-1.826 0-.754.203-1.339.609-1.756zm9.654 3.327c.174-.188.255-.321.255-.4v-2.402a.674.674 0 00-.219-.356.748.748 0 00-.581-.235c-.35 0-.594.24-.718.726a4.397 4.397 0 00-.107 1.103c-.01.383.023.767.1 1.142.121.465.349.692.699.692a.768.768 0 00.578-.285l-.007.015zm-2.264-3.287a1.7 1.7 0 011.347-.676c.246-.003.489.064.698.192.175.12.334.26.475.416v-1.799c0-.247-.049-.403-.146-.463a1.415 1.415 0 00-.599-.11v-.234h2.139v5.669a.588.588 0 00.119.422.747.747 0 00.455.147v.224c-.557.054-.918.097-1.079.123-.161.026-.447.097-.856.207v-.648c-.154.166-.33.31-.523.429-.24.145-.515.22-.795.22a1.636 1.636 0 01-1.268-.61c-.36-.407-.539-.96-.539-1.658.004-.78.193-1.395.567-1.848l.005-.003zm10.642 1.203a4.116 4.116 0 00-.136-1.21.492.492 0 00-.508-.346.536.536 0 00-.524.4c-.114.377-.169.77-.164 1.164l1.332-.008zm-2.113-1.243a1.969 1.969 0 011.469-.63 1.808 1.808 0 011.591.962c.132.28.214.58.244.886.019.129.029.258.032.388h-2.539c.011.35.075.697.188 1.03.194.54.538.812 1.025.812.239-.002.471-.078.664-.218a2.87 2.87 0 00.471-.437l.229.14a2.63 2.63 0 01-1.072 1.037c-.283.13-.592.193-.903.187a2.03 2.03 0 01-1.376-.57c-.427-.382-.641-.99-.641-1.826.005-.757.211-1.344.618-1.761zm6.704 3.785a.79.79 0 00.44-.135c.091-.074.137-.224.137-.461V23.45h-.577v-.434h.577v-.366a2.561 2.561 0 01.214-1.129c.278-.55.786-.828 1.528-.828.354-.01.703.083 1.003.268a.82.82 0 01.41.703.592.592 0 01-.387.576.637.637 0 01-.249.04.59.59 0 01-.408-.154.48.48 0 01-.175-.37.71.71 0 01.11-.346.714.714 0 00.108-.217.144.144 0 00-.085-.154.585.585 0 00-.19-.035.49.49 0 00-.372.14c-.091.095-.135.294-.135.602v1.273h.873v.434h-.873v3.023c0 .346.049.548.15.626.102.078.318.126.659.149v.23h-2.758v-.234zm6.985-6.334a.776.776 0 011.293.55.763.763 0 01-.205.532.77.77 0 01-.839.163.765.765 0 01-.417-.999.734.734 0 01.168-.246zm-.663 6.343a.725.725 0 00.361-.132.613.613 0 00.145-.465v-2.903a.603.603 0 00-.103-.408.733.733 0 00-.403-.173v-.235h1.91v3.739a.608.608 0 00.096.414c.106.08.232.13.364.145v.242h-2.361l-.009-.224zm5.749-.009a.746.746 0 00.401-.147.592.592 0 00.128-.45v-2.894a.611.611 0 00-.107-.417.688.688 0 00-.422-.155v-.235h1.884v.708c.157-.237.363-.438.604-.59.242-.156.526-.237.816-.234.361-.022.717.095.993.326.233.218.35.601.35 1.15v2.378a.555.555 0 00.115.429.73.73 0 00.38.131v.233h-2.326v-.236a.78.78 0 00.365-.146.597.597 0 00.095-.414v-2.379a1.44 1.44 0 00-.067-.504.443.443 0 00-.461-.303.713.713 0 00-.475.185 1.648 1.648 0 00-.333.372v2.632a.593.593 0 00.099.415.76.76 0 00.364.145v.233h-2.403v-.233zm11.302-2.542a4.293 4.293 0 00-.138-1.21.494.494 0 00-.508-.346.525.525 0 00-.524.4c-.115.377-.17.77-.165 1.164l1.335-.008zm-2.119-1.243a1.967 1.967 0 011.473-.63c.325 0 .645.089.923.257.287.166.518.411.667.705.132.28.215.58.243.886.018.129.029.258.033.388h-2.537c.012.349.077.695.194 1.025.194.54.536.81 1.027.812.237-.002.467-.078.658-.218a2.92 2.92 0 00.477-.437l.227.14c-.248.44-.62.8-1.071 1.037a2.09 2.09 0 01-.906.187 2.03 2.03 0 01-1.374-.57c-.425-.378-.638-.98-.638-1.81 0-.764.202-1.355.604-1.772zm9.654 3.327c.175-.188.253-.321.253-.4v-2.402a.654.654 0 00-.216-.356.766.766 0 00-.582-.235c-.349 0-.592.24-.721.726a4.591 4.591 0 00-.101 1.103c-.012.383.021.767.097 1.142.117.461.35.692.699.692a.772.772 0 00.576-.285l-.005.015zm-2.265-3.287a1.698 1.698 0 011.35-.676 1.3 1.3 0 01.698.192c.175.119.334.259.474.416v-1.799c0-.247-.048-.403-.145-.463a1.43 1.43 0 00-.601-.11v-.234h2.143v5.669a.59.59 0 00.115.422.768.768 0 00.456.147v.224c-.554.054-.915.097-1.078.123a10.38 10.38 0 00-.856.207v-.648a2.64 2.64 0 01-.513.429c-.24.145-.517.221-.798.22a1.647 1.647 0 01-1.268-.61c-.357-.407-.536-.96-.538-1.658-.002-.78.183-1.395.556-1.848l.005-.003zm6.314-5.886H33.915v.697h145.067v-.697z" fill="#fff"/></svg>