<svg width="30" height="28" fill="none" xmlns="http://www.w3.org/2000/svg"><path d="M24.328 14.023a9.33 9.33 0 01-1.58 5.233 9.474 9.474 0 01-4.253 3.48 9.587 9.587 0 01-5.49.553 9.528 9.528 0 01-4.874-2.563 9.37 9.37 0 01-2.61-4.812 9.31 9.31 0 01.533-5.436 9.42 9.42 0 013.498-4.225 9.566 9.566 0 015.281-1.586 9.531 9.531 0 016.706 2.736 9.336 9.336 0 012.789 6.628" fill="#fff"/><path fill-rule="evenodd" clip-rule="evenodd" d="M6.196 23.617l-2.897-1.333-.536-3.194 2.748-1.905 4.783.083-1.264 4.254-2.834 2.095zM23.472 4.36l2.897 1.333.534 3.196-2.748 1.905-4.783-.087 1.266-4.25 2.834-2.096zm-7.548-3.116l3.13-.63 2.363 2.247-1.054 3.143-3.892 2.747-1.554-4.159 1.007-3.348zM8.328 3.045l2.12-2.359 3.262.406 1.064 3.14-1.45 4.498-3.77-2.411-1.226-3.274zM2.937 8.747l.405-3.125 2.929-1.474 2.67 2.003 1.37 4.524-4.49.098-2.884-2.026zm10.778 17.965l-3.122.67-2.392-2.22 1.01-3.153 3.86-2.796 1.608 4.136-.964 3.363zm7.728-1.588l-2.173 2.31-3.248-.47-1-3.162 1.54-4.466 3.721 2.487 1.16 3.301zm5.282-5.921l-.379 3.126-2.916 1.5-2.69-1.982-1.409-4.51 4.49-.136 2.904 2.002zM2.232 16.79L.667 14.04l1.457-2.907 3.356.04 3.833 2.82L5.77 16.72l-3.538.07zm25.283 0l1.563-2.75-1.457-2.907-3.356.04-3.837 2.82 3.547 2.726 3.54.07z" fill="#fff"/><path d="M2.223 16.625h25.342L28.915 14l-1.345-2.63-25.347-.01L.831 14l1.392 2.625zm25.798.737h-.227l-26.02-.01L0 14l1.776-3.365h26.248L29.744 14l-1.723 3.362z" fill="#7E8185"/><path d="M16.113 26.733l2.95.484 2.144-2.055-7.56-23.854L10.68.79 8.557 2.878l7.556 23.855zM19.307 28l-3.765-.624L7.717 2.67 10.425 0l3.797.667 7.825 24.716L19.307 28z" fill="#7E8185"/><path d="M8.478 25.134l2.138 2.062 2.95-.468 7.683-23.82-2.13-2.11-2.95.519-7.69 23.817zm1.886 2.843l-2.722-2.639L15.596.671l3.788-.659 2.719 2.695-7.958 24.667-3.78.604z" fill="#7E8185"/><path d="M3.475 22.082l2.65 1.36 20.574-14.59-.433-2.94-2.68-1.332L3.008 19.173l.466 2.909zm2.712 2.216L2.794 22.56l-.587-3.721.187-.128 21.13-14.98 3.428 1.692.552 3.76-.183.13L6.187 24.298z" fill="#7E8185"/><path d="M3.143 8.642l20.301 14.964 2.675-1.313.515-2.902L6.34 4.425 3.62 5.718l-.477 2.924zM23.365 24.46L2.342 8.957l.611-3.73 3.47-1.654L27.445 19.07l-.655 3.711-3.425 1.678z" fill="#7E8185"/><path fill-rule="evenodd" clip-rule="evenodd" d="M14.88 10.758l1.353-.882.572 1.499 1.622.07-.43 1.544 1.268.999-1.268.997.43 1.545-1.622.071-.572 1.499-1.353-.884-1.353.884-.573-1.499-1.622-.07.431-1.546-1.266-.997 1.266-1-.431-1.543 1.622-.07.573-1.499 1.353.882z" fill="#fff"/><path d="M14.88 16.99l1.26.821.523-1.395 1.504-.067-.399-1.431 1.177-.93-1.177-.928.399-1.437-1.504-.065-.524-1.383-1.259.818-1.259-.825-.524 1.383-1.505.066.398 1.436-1.175.928 1.175.93-.398 1.431 1.505.078.524 1.395 1.26-.825zm1.451 1.397l-1.45-.93-1.452.938-.615-1.602-1.73-.076.459-1.65-1.357-1.07 1.357-1.069-.46-1.659 1.731-.08.615-1.603 1.451.943 1.451-.943.608 1.604 1.736.08-.463 1.65 1.359 1.068-1.359 1.07.473 1.65-1.746.076-.608 1.603z" fill="#fff"/><path d="M14.372 15.616l.524.992.513-.999 1.018.5L16.253 15l1.12-.189-.806-.79.796-.802-1.122-.17.174-1.11-1.013.518-.524-.994-.513 1.003-1.015-.501.175 1.11-1.126.18.808.792-.808.799 1.124.173-.174 1.11 1.023-.514zm.524 1.416l-.61-1.158-1.175.592.194-1.289-1.306-.197.924-.93-.936-.914 1.304-.218-.213-1.291 1.182.582.596-1.166.613 1.158 1.177-.597-.192 1.29 1.304.197-.924.932.934.915-1.3.217.214 1.289-1.187-.582-.6 1.17z" fill="#7E8185"/><path d="M14.978 11.091h-.192v5.884h.192V11.09z" fill="#7E8185"/><path d="M17.763 13.938h-5.806v.192h5.806v-.192z" fill="#7E8185"/><path d="M12.612 15.868l-.116-.153 4.625-3.497.118.15-4.627 3.5z" fill="#7E8185"/><path d="M17.2 15.73l-4.75-3.234.111-.155 4.752 3.232-.112.157z" fill="#7E8185"/><path d="M15.729 16.802l-1.88-5.476.18-.06 1.883 5.475-.183.06z" fill="#7E8185"/><path d="M16.557 16.456l-3.51-4.73.157-.115 3.506 4.733-.153.112z" fill="#7E8185"/><path d="M14.09 16.726l-.184-.06 1.78-5.385.186.06-1.781 5.385z" fill="#7E8185"/><path d="M13.253 16.456l-.161-.109 3.42-4.732.158.11-3.417 4.731z" fill="#7E8185"/><path d="M17.67 14.996l-5.642-1.74.058-.182 5.648 1.742-.063.18z" fill="#7E8185"/><path d="M12.135 15.037l-.061-.18 5.548-1.825.064.182-5.551 1.823z" fill="#7E8185"/><path d="M13.193 16.326l1.687.538 1.687-.538 1.04-1.419V13.16l-1.04-1.407-1.687-.537-1.687.537-1.048 1.416v1.738l1.048 1.42zm1.687.74l-1.807-.58-1.116-1.513v-1.875l1.116-1.518 1.807-.575 1.807.575 1.125 1.518v1.875l-1.116 1.512-1.816.581z" fill="#7E8185"/></svg>