<svg width="179" height="28" viewBox="0 0 179 28" fill="none" xmlns="http://www.w3.org/2000/svg">
<path d="M24.3276 14.0225C24.3362 15.8833 23.7866 17.7048 22.7483 19.2562C21.71 20.8076 20.2298 22.019 18.4953 22.7369C16.7607 23.4549 14.8499 23.6471 13.0049 23.2892C11.1599 22.9313 9.46369 22.0394 8.13131 20.7265C6.79892 19.4136 5.89027 17.7387 5.5205 15.9142C5.15073 14.0897 5.33647 12.1976 6.05419 10.4777C6.77191 8.75775 7.98931 7.28739 9.55214 6.25289C11.115 5.2184 12.9529 4.66634 14.833 4.66667C17.3465 4.663 19.7586 5.64738 21.539 7.4034C23.3195 9.15943 24.3225 11.5434 24.3276 14.0311" fill="white"/>
<path fill-rule="evenodd" clip-rule="evenodd" d="M6.19584 23.6168L3.29875 22.2842L2.76263 19.0901L5.51129 17.1854L10.2944 17.2684L9.03007 21.522L6.19584 23.6168Z" fill="white"/>
<path fill-rule="evenodd" clip-rule="evenodd" d="M23.4719 4.36075L26.369 5.69334L26.9034 8.88914L24.1547 10.7938L19.3716 10.7074L20.6377 6.45729L23.4719 4.36075Z" fill="white"/>
<path fill-rule="evenodd" clip-rule="evenodd" d="M15.9244 1.24445L19.0538 0.613586L21.4165 2.8605L20.3635 6.00445L16.471 8.75087L14.9168 4.59235L15.9244 1.24445Z" fill="white"/>
<path fill-rule="evenodd" clip-rule="evenodd" d="M8.32806 3.04545L10.4481 0.686188L13.7101 1.09236L14.7736 4.23113L13.3242 8.73014L9.55396 6.31903L8.32806 3.04545Z" fill="white"/>
<path fill-rule="evenodd" clip-rule="evenodd" d="M2.93726 8.74742L3.3424 5.62248L6.27092 4.14816L8.941 6.15137L10.3101 10.6746L5.82038 10.7731L2.93726 8.74742Z" fill="white"/>
<path fill-rule="evenodd" clip-rule="evenodd" d="M13.7153 26.7123L10.593 27.3812L8.20056 25.162L9.21166 22.0094L13.071 19.2128L14.6793 23.3489L13.7153 26.7123Z" fill="white"/>
<path fill-rule="evenodd" clip-rule="evenodd" d="M21.4427 25.124L19.2703 27.4331L16.0222 26.9647L15.0216 23.8017L16.5618 19.3356L20.2832 21.8227L21.4427 25.124Z" fill="white"/>
<path fill-rule="evenodd" clip-rule="evenodd" d="M26.7252 19.2025L26.3463 22.3291L23.43 23.8294L20.7407 21.8469L19.3314 17.3375L23.8211 17.201L26.7252 19.2025Z" fill="white"/>
<path fill-rule="evenodd" clip-rule="evenodd" d="M2.23179 16.7896L0.667114 14.0397L2.12352 11.1326L5.47989 11.1723L9.313 13.9931L5.76978 16.7187L2.23179 16.7896Z" fill="white"/>
<path fill-rule="evenodd" clip-rule="evenodd" d="M27.5145 16.7896L29.0775 14.0397L27.6211 11.1326L24.2647 11.1723L20.4281 13.9931L23.9748 16.7187L27.5145 16.7896Z" fill="white"/>
<path d="M2.22303 16.6254H27.5652L28.9151 14L27.5704 11.3694L2.22303 11.3607L0.831234 14L2.22303 16.6254ZM28.021 17.3617H27.794L1.77423 17.3513L0 14L1.77598 10.6348H28.0245L29.7446 14L28.021 17.3617Z" fill="#7E8185"/>
<path d="M16.113 26.7331L19.0625 27.217L21.2069 25.162L13.6473 1.3084L10.6786 0.789877L8.55682 2.87778L16.113 26.7331ZM19.307 28L15.542 27.376L7.71686 2.67037L10.4254 0L14.2218 0.66716L22.0469 25.3832L19.307 28Z" fill="#7E8185"/>
<path d="M8.4782 25.1343L10.6157 27.1963L13.5651 26.7279L21.2488 2.90891L19.1183 0.798535L16.1689 1.31705L8.4782 25.1343ZM10.3642 27.9775L7.64172 25.3383L15.5961 0.670634L19.3838 0.0121155L22.1027 2.70668L14.1449 27.3743L10.3642 27.9775Z" fill="#7E8185"/>
<path d="M3.47508 22.082L6.1242 23.4422L26.699 8.8511L26.2659 5.91283L23.5854 4.58024L3.00882 19.1731L3.47508 22.082ZM6.18707 24.2978L2.79403 22.5607L2.20728 18.8395L2.39413 18.7116L23.5242 3.7316L26.9522 5.4237L27.504 9.18468L27.3207 9.31431L6.18707 24.2978Z" fill="#7E8185"/>
<path d="M3.14334 8.64198L23.444 23.6064L26.1193 22.2928L26.6344 19.3909L6.33906 4.4247L3.62008 5.71754L3.14334 8.64198ZM23.3654 24.4603L2.3418 8.95655L2.953 5.22668L6.42288 3.5726L27.4447 19.0711L26.7899 22.782L23.3654 24.4603Z" fill="#7E8185"/>
<path fill-rule="evenodd" clip-rule="evenodd" d="M14.8801 10.7575L16.2335 9.87604L16.8045 11.3746L18.4269 11.4454L17.9973 12.9889L19.2651 13.9879L17.9973 14.9852L18.4269 16.5304L16.8045 16.6012L16.2335 18.0997L14.8801 17.2165L13.5268 18.0997L12.954 16.6012L11.3317 16.5304L11.763 14.9852L10.4969 13.9879L11.763 12.9889L11.3317 11.4454L12.954 11.3746L13.5268 9.87604L14.8801 10.7575Z" fill="white"/>
<path d="M14.8801 16.9901L16.1392 17.8111L16.6631 16.4163L18.1666 16.3489L17.7685 14.9178L18.9455 13.9879L17.7685 13.0597L18.1666 11.6234L16.6631 11.5578L16.1392 10.175L14.8801 10.9926L13.621 10.1681L13.0972 11.5508L11.5919 11.6165L11.99 13.0528L10.8148 13.981L11.99 14.9108L11.5919 16.342L13.0972 16.4197L13.621 17.8146L14.8801 16.9901ZM16.3313 18.3867L14.8801 17.4568L13.429 18.3953L12.8143 16.7931L11.0837 16.717L11.543 15.0664L10.1861 13.9965L11.543 12.9284L11.0837 11.2691L12.8143 11.1896L13.429 9.58566L14.8801 10.5294L16.3313 9.58566L16.939 11.1896L18.6748 11.2691L18.212 12.9197L19.5707 13.9879L18.212 15.0578L18.6853 16.7084L16.939 16.7844L16.3313 18.3867Z" fill="white"/>
<path d="M14.372 15.6161L14.8959 16.6082L15.4093 15.6091L16.4274 16.1087L16.2528 15.0008L17.3721 14.8124L16.5671 14.0225L17.3634 13.2205L16.2405 13.0494L16.4152 11.9398L15.4023 12.4583L14.8784 11.4645L14.365 12.4669L13.3504 11.9657L13.5251 13.0753L12.3987 13.2568L13.2072 14.0484L12.3987 14.8469L13.5233 15.0198L13.3487 16.1294L14.372 15.6161ZM14.8959 17.0316L14.2864 15.8736L13.1112 16.4664L13.305 15.177L11.9988 14.98L12.9226 14.0501L11.9866 13.1358L13.2911 12.918L13.078 11.6269L14.2602 12.2094L14.8557 11.0427L15.4687 12.2007L16.6457 11.6045L16.4536 12.8938L17.7581 13.0909L16.8343 14.0225L17.7685 14.9385L16.4676 15.1546L16.6823 16.444L15.4949 15.8615L14.8959 17.0316Z" fill="#7E8185"/>
<path d="M14.978 11.0911H14.7859V16.9746H14.978V11.0911Z" fill="#7E8185"/>
<path d="M17.7633 13.9378H11.9568V14.1296H17.7633V13.9378Z" fill="#7E8185"/>
<path d="M12.6117 15.8684L12.4965 15.7146L17.1206 12.218L17.2394 12.3684L12.6117 15.8684Z" fill="#7E8185"/>
<path d="M17.2009 15.7301L12.4493 12.4963L12.561 12.3407L17.3127 15.5728L17.2009 15.7301Z" fill="#7E8185"/>
<path d="M15.7288 16.8017L13.8481 11.3262L14.0297 11.2657L15.9122 16.7412L15.7288 16.8017Z" fill="#7E8185"/>
<path d="M16.5566 16.456L13.0465 11.7254L13.2037 11.6114L16.7102 16.3437L16.5566 16.456Z" fill="#7E8185"/>
<path d="M14.0908 16.7257L13.9057 16.6652L15.6869 11.2812L15.872 11.3417L14.0908 16.7257Z" fill="#7E8185"/>
<path d="M13.2526 16.456L13.0919 16.3471L16.5112 11.6148L16.6701 11.7254L13.2526 16.456Z" fill="#7E8185"/>
<path d="M17.6707 14.9956L12.0284 13.2551L12.0861 13.0736L17.7336 14.8158L17.6707 14.9956Z" fill="#7E8185"/>
<path d="M12.135 15.037L12.0739 14.8573L17.6218 13.0321L17.6864 13.2136L12.135 15.037Z" fill="#7E8185"/>
<path d="M13.1932 16.3264L14.8801 16.864L16.5671 16.3264L17.6061 14.9074V13.16L16.5671 11.7531L14.8801 11.2156L13.1932 11.7531L12.1454 13.1687V14.9074L13.1932 16.3264ZM14.8801 17.0662L13.0727 16.4854L11.9568 14.9731V13.0978L13.0727 11.5803L14.8801 11.0047L16.6875 11.5803L17.8122 13.0978V14.9731L16.6963 16.4854L14.8801 17.0662Z" fill="#7E8185"/>
<path d="M42.6095 10.3289L40.4126 5.3269L38.1547 10.3289H42.6095ZM42.9797 11.1222H37.7758L37.1576 12.536C36.9777 12.8998 36.8721 13.2951 36.8467 13.6993C36.8353 13.8809 36.8764 14.0621 36.9651 14.2216C37.0539 14.381 37.1866 14.5122 37.3479 14.5997C37.5388 14.715 38.0191 14.8008 38.7886 14.8573V15.2531H33.899V14.8642C34.395 14.8025 34.8544 14.5736 35.2 14.216C35.5492 13.8704 35.9596 13.1341 36.4625 12.0262L41.7259 0.430359H41.9337L47.2424 12.3407C47.7535 13.4676 48.1708 14.178 48.4945 14.4718C48.7894 14.7143 49.1589 14.8503 49.5423 14.8573V15.2531H42.4174V14.8642H42.7108C43.2818 14.8642 43.6887 14.7864 43.9175 14.6291C43.9954 14.5731 44.0579 14.4987 44.0994 14.4127C44.1409 14.3266 44.16 14.2317 44.155 14.1365C44.1536 14.0027 44.1318 13.8699 44.0903 13.7425C44.0764 13.6785 43.9663 13.4089 43.7638 12.9353L42.9797 11.1222Z" fill="white"/>
<path d="M54.7497 5.23876V6.55753C55.1901 6.05292 55.7146 5.62675 56.3004 5.29753C56.7827 5.05691 57.3163 4.93422 57.8564 4.93975C58.4371 4.91955 59.0101 5.07642 59.4979 5.38913C59.9721 5.73294 60.329 6.21168 60.5212 6.76148C60.992 6.20563 61.5562 5.73436 62.1889 5.36839C62.6992 5.08809 63.273 4.94061 63.8566 4.93975C64.5551 4.93975 65.1157 5.09876 65.5313 5.41506C65.9406 5.72041 66.2454 6.14271 66.4045 6.62494C66.5686 7.11234 66.6524 7.89876 66.6524 8.96691V13.0701C66.6524 13.8427 66.7188 14.3198 66.862 14.5047C67.0052 14.6896 67.2968 14.8123 67.7439 14.8677V15.2531H62.505V14.8642C62.6832 14.8601 62.8582 14.8158 63.0164 14.7347C63.1747 14.6535 63.3122 14.5376 63.4183 14.3958C63.5475 14.2022 63.6156 13.7598 63.6156 13.0667V8.76469C63.6156 7.87111 63.5772 7.3042 63.5074 7.06049C63.4527 6.84818 63.3302 6.65903 63.1581 6.52123C63.0007 6.4032 62.8071 6.34219 62.6098 6.34839C62.2657 6.35888 61.9338 6.47685 61.6615 6.68543C61.2874 6.96792 60.9629 7.30954 60.7011 7.69654V13.0701C60.7011 13.7909 60.757 14.2454 60.8757 14.4321C61.0399 14.6948 61.3594 14.8417 61.8274 14.8677V15.2531H56.5798V14.8642C56.8196 14.8635 57.0535 14.7906 57.2504 14.6551C57.4038 14.5429 57.5175 14.3856 57.5752 14.2057C57.6474 13.8305 57.675 13.4482 57.6573 13.0667V8.76469C57.6573 7.85728 57.6206 7.28691 57.5473 7.06049C57.486 6.84861 57.3582 6.66154 57.1823 6.52642C57.0282 6.40245 56.836 6.33417 56.6375 6.33284C56.3551 6.32976 56.0779 6.40781 55.8394 6.55753C55.4139 6.87054 55.0464 7.25415 54.7532 7.69136V13.0701C54.7532 13.7788 54.8248 14.2437 54.9663 14.4684C55.1077 14.6931 55.3993 14.8262 55.8534 14.8677V15.2531H50.6145V14.8642C51.0458 14.8227 51.3479 14.6914 51.5278 14.458C51.6501 14.299 51.7129 13.8393 51.7129 13.0753V7.41481C51.7129 6.65432 51.6396 6.18765 51.4964 6.00099C51.3532 5.81432 51.0633 5.69333 50.6145 5.63457V5.23876H54.7497Z" fill="white"/>
<path d="M74.6731 12.9941V9.63924C73.8 10.1578 73.1433 10.6918 72.7173 11.2726C72.4539 11.6086 72.3064 12.0193 72.2964 12.4444C72.2948 12.7665 72.42 13.0765 72.6457 13.3086C72.745 13.4068 72.8642 13.4833 72.9954 13.533C73.1265 13.5828 73.2668 13.6046 73.407 13.5973C73.772 13.5973 74.1894 13.3933 74.6679 12.9958L74.6731 12.9941ZM76.7634 0.580724H77.3397C77.3397 0.725909 77.3484 0.846896 77.3484 0.943687C77.3484 1.73183 77.1214 2.36443 76.6778 2.84492C76.474 3.07402 76.2226 3.25686 75.9408 3.38095C75.659 3.50504 75.3535 3.56746 75.0451 3.56393C74.5794 3.56393 73.9868 3.3957 73.2673 3.05924C72.5566 2.72739 72.0781 2.55628 71.8424 2.55628C71.7433 2.5531 71.6447 2.57002 71.5525 2.60598C71.4603 2.64195 71.3765 2.69621 71.3062 2.76541C71.1596 2.90541 71.06 3.16467 71.0006 3.53801H70.3755C70.3464 2.60698 70.5612 1.8776 71.0199 1.34986C71.2241 1.09927 71.4831 0.897822 71.7775 0.760701C72.0718 0.62358 72.3937 0.554359 72.719 0.558254C72.9028 0.553658 73.0863 0.575195 73.2638 0.622205C73.6222 0.74154 73.9722 0.884155 74.3116 1.04912C75.0468 1.3827 75.5812 1.55554 75.9007 1.55554C76.0723 1.54976 76.2355 1.48072 76.3583 1.36196C76.5554 1.1363 76.6965 0.868189 76.7704 0.578995L76.7634 0.580724ZM74.6679 13.7805C73.4297 14.8538 72.3191 15.3965 71.3324 15.3965C71.0657 15.405 70.8001 15.3592 70.552 15.262C70.3039 15.1648 70.0786 15.0182 69.89 14.8313C69.7008 14.6489 69.5517 14.4298 69.4519 14.1877C69.3522 13.9456 69.3039 13.6858 69.3102 13.4244C69.3102 12.6605 69.6444 11.9732 70.3126 11.3625C70.9809 10.7518 72.4326 9.93941 74.6679 8.92542V7.91776C74.6679 7.159 74.6242 6.68369 74.5439 6.48665C74.4423 6.27014 74.2767 6.0893 74.0689 5.96813C73.8353 5.82236 73.5644 5.74616 73.2883 5.74862C72.8783 5.73398 72.4735 5.84243 72.127 6.05974C72.0456 6.10525 71.9771 6.17024 71.9277 6.24874C71.8783 6.32725 71.8495 6.41677 71.8441 6.50912C71.8762 6.7247 71.9837 6.92229 72.148 7.06739C72.3904 7.30441 72.537 7.62099 72.5601 7.95751C72.5632 8.12588 72.5292 8.2929 72.4605 8.44694C72.3917 8.60097 72.2898 8.7383 72.1619 8.84937C71.8795 9.10312 71.5075 9.23662 71.1264 9.22097C70.7087 9.23266 70.3019 9.08757 69.9878 8.8148C69.8443 8.69945 69.7284 8.55407 69.6483 8.38911C69.5683 8.22415 69.5262 8.0437 69.525 7.86072C69.5414 7.31341 69.7615 6.7914 70.1432 6.39504C70.6132 5.89159 71.2098 5.52062 71.872 5.31998C72.6126 5.06816 73.3906 4.94138 74.1737 4.94492C75.1376 4.94492 75.899 5.14369 76.4613 5.54813C77.0236 5.95258 77.3868 6.38986 77.5527 6.85998C77.654 7.16418 77.7082 7.85208 77.7082 8.93406V12.8229C77.6934 13.112 77.7103 13.4017 77.7588 13.6871C77.7833 13.7878 77.8389 13.8784 77.9177 13.9464C77.9899 14.0038 78.0801 14.0344 78.1727 14.0328C78.3473 14.0328 78.5516 13.9015 78.7455 13.637L79.072 13.8928C78.7818 14.3482 78.3981 14.7381 77.9457 15.037C77.5502 15.2782 77.0934 15.4029 76.6289 15.3965C76.0474 15.3965 75.5969 15.2617 75.2686 14.9955C74.9202 14.6802 74.7071 14.2448 74.6731 13.7787L74.6679 13.7805Z" fill="white"/>
<path d="M84.3458 5.23878V6.53334C84.7766 6.0526 85.2832 5.64403 85.8459 5.32347C86.3201 5.07059 86.851 4.93982 87.3896 4.94322C87.9847 4.9204 88.5678 5.11339 89.0294 5.48594C89.4556 5.83105 89.7612 6.30036 89.9025 6.82717C90.023 7.23335 90.0772 8.01804 90.0772 9.1726V13.0701C90.0772 13.8427 90.1505 14.3215 90.2919 14.5082C90.4334 14.6948 90.7268 14.8193 91.1773 14.8677V15.2531H86.0205V14.8642C86.186 14.855 86.347 14.8079 86.491 14.7266C86.6349 14.6454 86.7578 14.5321 86.85 14.3958C86.9618 14.223 87.0246 13.7753 87.0246 13.0667V8.61261C87.0246 7.79335 86.9915 7.27483 86.9251 7.05705C86.8704 6.86342 86.7548 6.69208 86.595 6.56791C86.4455 6.45277 86.2606 6.39177 86.0712 6.39507C85.4495 6.39507 84.8732 6.83409 84.3249 7.71211V13.0701C84.3249 13.8185 84.3965 14.2973 84.5414 14.4961C84.6864 14.6948 84.9448 14.8193 85.3255 14.8677V15.2531H80.2001V14.8642C80.628 14.8227 80.9336 14.6914 81.1152 14.458C81.2392 14.299 81.2985 13.8393 81.2985 13.0753V7.41483C81.2985 6.65433 81.2287 6.18767 81.0872 6.001C80.9458 5.81433 80.6507 5.69334 80.2001 5.63458V5.23878H84.3458Z" fill="white"/>
<path d="M98.1694 12.9941V9.63924C97.2963 10.1578 96.6414 10.6918 96.2136 11.2726C95.9468 11.6072 95.7967 12.0183 95.7857 12.4444C95.7879 12.7681 95.9176 13.0781 96.1472 13.3086C96.2457 13.4071 96.3642 13.4838 96.4948 13.5335C96.6255 13.5833 96.7653 13.605 96.9051 13.5973C97.2683 13.5973 97.6892 13.3933 98.1694 12.9958V12.9941ZM98.1694 13.7805C96.9296 14.8538 95.8172 15.3965 94.834 15.3965C94.5671 15.4048 94.3012 15.3589 94.0529 15.2617C93.8045 15.1645 93.5789 15.0181 93.3898 14.8313C93.1995 14.6497 93.0497 14.4308 92.9498 14.1885C92.85 13.9462 92.8024 13.686 92.8101 13.4244C92.8101 12.6605 93.143 11.9732 93.8089 11.3625C94.4813 10.7489 95.9307 9.93825 98.1747 8.92541V7.91776C98.1747 7.159 98.1328 6.68369 98.0489 6.48665C97.9484 6.27111 97.7848 6.09045 97.5792 5.96813C97.3444 5.82363 97.0733 5.74755 96.7968 5.74862C96.3852 5.73379 95.9787 5.84222 95.6303 6.05974C95.5492 6.10549 95.4808 6.17054 95.4314 6.249C95.382 6.32745 95.3532 6.41685 95.3474 6.50912C95.3474 6.66122 95.4487 6.8548 95.653 7.06739C95.8953 7.3042 96.0408 7.62114 96.0617 7.95751C96.0645 8.12519 96.0311 8.29152 95.9636 8.44535C95.8961 8.59918 95.7962 8.73693 95.6705 8.84937C95.3844 9.10515 95.0078 9.23871 94.6227 9.22097C94.203 9.23186 93.7944 9.08697 93.4771 8.8148C93.3351 8.69847 93.2206 8.55277 93.1416 8.38795C93.0625 8.22312 93.0209 8.04317 93.0196 7.86072C93.0368 7.31359 93.2568 6.79185 93.6378 6.39504C94.1067 5.89281 94.7013 5.52197 95.3614 5.31998C96.1044 5.06829 96.8847 4.94152 97.67 4.94492C98.6305 4.94492 99.3953 5.14369 99.9541 5.54813C100.513 5.95258 100.88 6.38986 101.049 6.85998C101.145 7.16418 101.196 7.85208 101.196 8.93406V12.8229C101.181 13.1122 101.2 13.4023 101.253 13.6871C101.28 13.7877 101.337 13.8781 101.416 13.9464C101.486 14.0037 101.575 14.0343 101.666 14.0328C101.852 14.0328 102.048 13.9015 102.238 13.637L102.567 13.8928C102.276 14.3482 101.893 14.7381 101.44 15.037C101.045 15.2788 100.588 15.4035 100.124 15.3965C99.5438 15.3965 99.0915 15.2617 98.7667 14.9955C98.417 14.681 98.2032 14.2452 98.1694 13.7787V13.7805Z" fill="white"/>
<path d="M106.365 0.381958H119.827L119.848 4.83949H119.205C118.993 3.24245 118.389 2.1622 117.391 1.59875C116.83 1.28994 115.993 1.12056 114.88 1.0906V12.7538C114.88 13.5679 115.025 14.1071 115.311 14.375C115.597 14.6429 116.198 14.7743 117.108 14.7743V15.336H109.143V14.7743C110.016 14.7743 110.596 14.6378 110.889 14.3664C111.183 14.095 111.321 13.561 111.321 12.7538V1.09579C110.228 1.12517 109.4 1.29455 108.81 1.60393C107.741 2.18006 107.137 3.26031 106.997 4.84467H106.349L106.365 0.381958Z" fill="white"/>
<path d="M124.552 13.7477C124.78 13.5666 124.988 13.364 125.176 13.1427V9.90371C124.613 10.0299 124.08 10.2604 123.604 10.583C122.838 11.1136 122.459 11.7825 122.459 12.5983C122.459 13.0845 122.569 13.451 122.79 13.6975C122.879 13.8108 122.992 13.9031 123.122 13.968C123.251 14.0328 123.393 14.0686 123.538 14.0726C123.902 14.0723 124.257 13.9587 124.552 13.7477ZM120.656 10.8993C121.624 10.3162 123.141 9.72742 125.209 9.13285V7.52544C125.209 6.86865 125.071 6.3847 124.79 6.07186C124.509 5.75902 124.011 5.60174 123.299 5.60174C122.956 5.58932 122.616 5.66494 122.312 5.82125C122.202 5.86995 122.107 5.94789 122.039 6.04643C121.971 6.14497 121.932 6.26026 121.926 6.37952C121.923 6.45337 121.938 6.52681 121.97 6.59384C122.004 6.66138 122.048 6.72366 122.101 6.77878L122.23 6.92915C122.332 7.05105 122.415 7.18738 122.476 7.33359C122.538 7.484 122.569 7.64486 122.569 7.80717C122.579 7.9893 122.546 8.1713 122.474 8.33891C122.401 8.50653 122.29 8.65522 122.15 8.77334C121.875 9.00012 121.528 9.12266 121.17 9.11902C120.77 9.12929 120.379 8.9954 120.071 8.74223C119.918 8.60632 119.798 8.4377 119.72 8.24908C119.642 8.06046 119.608 7.85676 119.621 7.65334C119.621 6.80643 120.026 6.13236 120.833 5.63804C121.64 5.14371 122.633 4.8931 123.812 4.8931C125.078 4.8931 126.14 5.1368 126.99 5.61902C127.841 6.10124 128.256 7.00174 128.256 8.3205V13.6785C128.251 13.824 128.296 13.967 128.382 14.0847C128.411 14.134 128.451 14.1756 128.5 14.2058C128.549 14.2359 128.604 14.2537 128.661 14.2575C128.743 14.2588 128.824 14.2417 128.897 14.2074C129.015 14.1347 129.123 14.0463 129.217 13.9447L129.556 14.4096C129.169 14.8769 128.67 15.2401 128.104 15.4657C127.768 15.5982 127.408 15.6651 127.046 15.6627C126.381 15.6627 125.899 15.4709 125.595 15.0872C125.387 14.799 125.254 14.464 125.209 14.1124C124.625 14.7049 123.907 15.1506 123.113 15.4121C122.664 15.5673 122.192 15.6479 121.716 15.6506C121.097 15.6477 120.495 15.4443 120.003 15.0716C119.479 14.6862 119.207 14.0847 119.207 13.2706C119.206 12.2739 119.689 11.4835 120.656 10.8993Z" fill="white"/>
<path d="M130.177 14.8071C130.482 14.7535 130.768 14.6251 131.01 14.4338C131.185 14.2783 131.256 13.9568 131.256 13.4659V2.18813C131.256 1.71801 131.18 1.41151 131.028 1.26862C130.779 1.08109 130.486 0.958108 130.177 0.910847V0.381958H134.368V9.91233L137.208 7.0864C137.354 6.94998 137.476 6.78982 137.568 6.61282C137.628 6.50645 137.665 6.38864 137.676 6.26714C137.684 6.17082 137.659 6.07461 137.605 5.99423C137.55 5.91385 137.47 5.85407 137.377 5.82467C137.045 5.72837 136.702 5.67038 136.356 5.65183V5.14714H141.149V5.65529C140.776 5.69343 140.408 5.77227 140.053 5.89035C139.527 6.111 139.051 6.43498 138.655 6.8427L136.921 8.58319L141.245 14.4718C141.307 14.5726 141.395 14.6559 141.498 14.7138C141.597 14.7613 141.702 14.7928 141.811 14.8071V15.336H136.595V14.8071C136.833 14.8081 137.07 14.7672 137.293 14.6862C137.358 14.666 137.415 14.6261 137.455 14.5721C137.496 14.518 137.518 14.4527 137.519 14.3854C137.508 14.281 137.476 14.1799 137.424 14.0881C137.288 13.849 137.137 13.6181 136.972 13.3968L134.859 10.4205L134.368 10.9597V13.4676C134.368 13.9637 134.429 14.2973 134.553 14.4615C134.677 14.6257 134.994 14.7432 135.503 14.8071V15.336H130.177V14.8071Z" fill="white"/>
<path d="M148.169 13.7477C148.394 13.5639 148.6 13.359 148.784 13.1358V9.90371C148.221 10.0299 147.688 10.2604 147.212 10.583C146.447 11.1136 146.063 11.7825 146.063 12.5983C146.063 13.0845 146.175 13.451 146.399 13.6975C146.487 13.8109 146.6 13.9033 146.73 13.9682C146.859 14.033 147.001 14.0687 147.146 14.0726C147.511 14.072 147.866 13.9584 148.162 13.7477H148.169ZM144.272 10.8993C145.238 10.3128 146.755 9.72396 148.824 9.13285V7.52544C148.824 6.86865 148.684 6.38413 148.403 6.07186C148.124 5.75557 147.628 5.60174 146.912 5.60174C146.57 5.58866 146.23 5.66433 145.927 5.82125C145.816 5.86912 145.721 5.94676 145.652 6.04541C145.583 6.14406 145.543 6.25978 145.538 6.37952C145.535 6.45337 145.55 6.52681 145.581 6.59384C145.616 6.66061 145.66 6.72275 145.71 6.77878L145.843 6.92915C145.943 7.05233 146.026 7.18838 146.089 7.33359C146.15 7.48435 146.18 7.64505 146.18 7.80717C146.19 7.9893 146.158 8.1713 146.085 8.33891C146.012 8.50653 145.902 8.65522 145.761 8.77334C145.487 8.99999 145.14 9.12255 144.783 9.11902C144.383 9.12982 143.994 8.99584 143.687 8.74223C143.533 8.60641 143.412 8.43785 143.334 8.24924C143.256 8.06063 143.222 7.85688 143.234 7.65334C143.234 6.80643 143.636 6.13236 144.444 5.63804C145.253 5.14371 146.248 4.8931 147.427 4.8931C148.694 4.8931 149.753 5.13507 150.604 5.61902C151.455 6.10297 151.877 7.00347 151.87 8.3205V13.6785C151.867 13.8234 151.91 13.9655 151.994 14.0847C152.022 14.1338 152.062 14.1753 152.111 14.2054C152.159 14.2355 152.214 14.2534 152.271 14.2575C152.353 14.2597 152.434 14.2425 152.507 14.2074C152.627 14.1359 152.736 14.0474 152.83 13.9447L153.169 14.4096C152.783 14.8777 152.283 15.2411 151.716 15.4657C151.379 15.5982 151.02 15.6651 150.658 15.6627C149.994 15.6627 149.51 15.4709 149.205 15.0872C149.002 14.8012 148.871 14.471 148.824 14.1245C148.24 14.7161 147.521 15.1616 146.729 15.4242C146.279 15.5785 145.807 15.6591 145.332 15.6627C144.712 15.6603 144.111 15.4569 143.62 15.0837C143.086 14.6977 142.819 14.0974 142.82 13.2827C142.819 12.278 143.303 11.4835 144.272 10.8993Z" fill="white"/>
<path d="M153.735 14.8072C154.194 14.7709 154.522 14.6724 154.723 14.5047C154.924 14.337 155.022 13.9862 155.022 13.4677V6.27062H153.735V5.29926H155.022V4.47655C155.022 3.44815 155.188 2.59951 155.516 1.93754C156.136 0.700005 157.28 0.0806634 158.946 0.0795112C159.74 0.0536055 160.524 0.262393 161.198 0.679264C161.813 1.08025 162.119 1.60568 162.119 2.26247C162.126 2.44531 162.096 2.6278 162.03 2.79871C161.964 2.96962 161.864 3.12535 161.734 3.2563C161.596 3.38336 161.434 3.48183 161.256 3.54594C161.079 3.61004 160.891 3.6385 160.702 3.62963C160.363 3.63669 160.034 3.51271 159.786 3.28396C159.665 3.18108 159.568 3.05349 159.501 2.90997C159.435 2.76645 159.401 2.61041 159.401 2.4526C159.412 2.17738 159.498 1.91026 159.651 1.68001C159.758 1.52933 159.84 1.36315 159.896 1.18741C159.905 1.11644 159.89 1.04444 159.855 0.982142C159.819 0.919848 159.764 0.870597 159.698 0.841733C159.563 0.791091 159.419 0.765887 159.274 0.767412C159.119 0.757287 158.964 0.779956 158.819 0.833905C158.674 0.887853 158.542 0.971839 158.432 1.08025C158.233 1.29112 158.137 1.7405 158.137 2.43186V5.29926H160.079V6.27062H158.135V13.0667C158.135 13.8306 158.247 14.299 158.469 14.4719C158.691 14.6447 159.183 14.7588 159.948 14.8072V15.3361H153.735V14.8072Z" fill="white"/>
<path d="M165.449 5.14716V12.657C165.431 12.9937 165.491 13.33 165.623 13.6405C165.814 14.0069 166.187 14.1918 166.748 14.1918C167.123 14.1859 167.488 14.0692 167.796 13.8565C168.064 13.6763 168.313 13.4702 168.54 13.2412V6.96197C168.54 6.49703 168.445 6.17382 168.262 5.98543C168.079 5.79703 167.703 5.69851 167.139 5.67604V5.14716H171.594V13.1202C171.594 13.5783 171.681 13.8963 171.856 14.0709C172.031 14.2454 172.359 14.3457 172.883 14.3975V14.9057C171.501 15.0336 170.628 15.1286 170.263 15.1909C169.678 15.3106 169.101 15.4641 168.534 15.6506V14.1918C168.128 14.5563 167.684 14.8783 167.211 15.1528C166.628 15.4778 165.97 15.6492 165.3 15.6506C164.57 15.646 163.862 15.4029 163.285 14.9593C162.663 14.5064 162.353 13.6998 162.353 12.5395V6.96197C162.353 6.49012 162.278 6.17901 162.122 6.03382C161.967 5.88864 161.677 5.77111 161.24 5.67604V5.14716H165.449Z" fill="white"/>
<path d="M173.674 14.8071C173.979 14.7531 174.265 14.6248 174.507 14.4338C174.681 14.2783 174.753 13.9568 174.753 13.4676V2.19677C174.753 1.72319 174.676 1.41554 174.523 1.26862C174.274 1.08142 173.982 0.958455 173.674 0.910847V0.381958H177.909V13.4676C177.909 13.9568 177.987 14.2783 178.15 14.4286C178.398 14.6215 178.69 14.7515 179 14.8071V15.336H173.674V14.8071Z" fill="white"/>
<path d="M35.8304 27.2291C36.0169 27.2162 36.1972 27.1567 36.3543 27.0563C36.5004 26.9119 36.5985 26.7268 36.6354 26.5257L37.8578 22.1079C37.8962 21.9852 37.9207 21.8763 37.9382 21.7933C37.9545 21.7195 37.9633 21.6442 37.9644 21.5686C37.9644 21.3958 37.9189 21.299 37.8229 21.2558C37.6336 21.1928 37.4358 21.1578 37.2361 21.1521V20.8963H40.2048V21.1521C40.0184 21.1657 39.8384 21.2251 39.681 21.3249C39.5385 21.4733 39.4426 21.6595 39.405 21.8607L38.1826 26.2785L38.1058 26.6242C38.1058 26.657 38.0936 26.6882 38.0883 26.721C38.0858 26.7526 38.0858 26.7844 38.0883 26.8161C38.0883 26.9803 38.1337 27.0874 38.2228 27.1306C38.4127 27.194 38.611 27.2295 38.8113 27.2361V27.4815H35.8426L35.8304 27.2291Z" fill="white"/>
<path d="M43.1543 27.4815L44.0274 24.3358C44.0589 24.2062 44.0868 24.1059 44.1043 24.0333C44.1281 23.9392 44.1439 23.8432 44.1514 23.7464C44.1514 23.6254 44.113 23.5528 44.0397 23.5235C43.8992 23.4857 43.7539 23.4682 43.6083 23.4716V23.2123C44.017 23.1864 44.34 23.157 44.5688 23.1242C44.7976 23.0914 45.1363 23.0326 45.5939 22.9514L45.0019 24.7731L45.0298 24.7886C45.0123 24.8025 45.1119 24.6573 45.3232 24.3479C45.5004 24.0787 45.7033 23.8269 45.9292 23.596C46.1036 23.4123 46.3035 23.254 46.5229 23.1259C46.7209 23.0126 46.9456 22.953 47.1743 22.9531C47.3696 22.9463 47.5611 23.0075 47.7156 23.1259C47.7946 23.2001 47.8555 23.2911 47.8936 23.392C47.9318 23.4929 47.9461 23.6011 47.9356 23.7084C47.9356 23.9573 47.7907 24.5081 47.5008 25.3607C47.2039 26.2094 47.0573 26.6657 47.0573 26.7262C47.0559 26.7512 47.06 26.7762 47.0693 26.7995C47.0787 26.8227 47.093 26.8437 47.1114 26.861C47.1405 26.8865 47.1774 26.9017 47.2162 26.9042C47.3035 26.9042 47.4327 26.7953 47.6056 26.5775C47.7116 26.4409 47.8095 26.2984 47.899 26.1506L48.1225 26.2889C47.9448 26.5918 47.7359 26.8756 47.4991 27.1358C47.3827 27.2699 47.2397 27.3788 47.079 27.4558C46.9183 27.5329 46.7432 27.5763 46.5648 27.5835C46.3941 27.586 46.2275 27.5318 46.0916 27.4296C46.0192 27.3714 45.9622 27.2966 45.9257 27.2116C45.8892 27.1267 45.8742 27.0342 45.882 26.9422C45.8923 26.7351 45.9263 26.5299 45.9833 26.3304C46.0514 26.059 46.13 25.7842 46.2155 25.4973L46.6713 24.0247C46.6818 23.9918 46.687 23.9607 46.6958 23.9348C46.6993 23.9096 46.6993 23.884 46.6958 23.8588C46.6993 23.8289 46.6943 23.7987 46.6813 23.7715C46.6684 23.7443 46.648 23.7212 46.6224 23.7049C46.5741 23.6755 46.5185 23.6599 46.4618 23.66C46.2592 23.66 46.0322 23.8173 45.7877 24.1301C45.5541 24.4203 45.3505 24.733 45.18 25.0635C45.0138 25.3979 44.8726 25.7439 44.7574 26.0988C44.6474 26.4444 44.5112 26.9077 44.3523 27.4901L43.1543 27.4815Z" fill="white"/>
<path d="M51.8177 25.9847L52.0796 26.0037C52.1268 26.4859 52.2542 26.8264 52.4533 27.0217C52.6037 27.1935 52.8164 27.2996 53.0453 27.3173C53.1201 27.3202 53.1946 27.3076 53.2641 27.2802C53.3336 27.2528 53.3965 27.2112 53.4487 27.1583C53.5465 27.0569 53.6004 26.9217 53.5989 26.7815C53.5933 26.6288 53.5469 26.4803 53.4644 26.3511C53.3736 26.1904 53.269 26.0378 53.1518 25.8948L52.7834 25.4385C52.6164 25.2576 52.4775 25.0532 52.3712 24.8319C52.2598 24.6179 52.2 24.3812 52.1966 24.1405C52.196 23.9819 52.229 23.8249 52.2934 23.6797C52.3577 23.5344 52.4521 23.4041 52.5703 23.297C52.7072 23.1748 52.8671 23.0805 53.041 23.0197C53.2148 22.9589 53.3991 22.9327 53.5832 22.9427C53.7735 22.946 53.9617 22.9835 54.1385 23.0533C54.2601 23.1075 54.3889 23.1442 54.5209 23.1622C54.5837 23.1681 54.6464 23.1495 54.6956 23.1104C54.741 23.0662 54.7777 23.014 54.8038 22.9566H55.0902L54.8667 24.462L54.603 24.4361C54.577 24.1093 54.4557 23.7971 54.2537 23.5373C54.191 23.4574 54.1119 23.3917 54.0216 23.3443C53.9313 23.2969 53.8318 23.269 53.7299 23.2625C53.6527 23.2567 53.5753 23.2694 53.5042 23.2995C53.4331 23.3296 53.3703 23.3762 53.3212 23.4353C53.2379 23.537 53.1922 23.6639 53.192 23.7948C53.1922 23.9162 53.2247 24.0355 53.2863 24.1405C53.3974 24.3164 53.5199 24.485 53.653 24.6452L54.142 25.2605C54.2581 25.4105 54.3549 25.5742 54.4301 25.7479C54.5133 25.9262 54.5568 26.1201 54.5576 26.3165C54.564 26.4984 54.5281 26.6794 54.4527 26.8454C54.3773 27.0114 54.2645 27.158 54.1228 27.2741C53.8295 27.5166 53.457 27.645 53.075 27.6353C52.8819 27.6332 52.6907 27.5963 52.511 27.5264C52.3952 27.4759 52.2739 27.4388 52.1495 27.4158C52.1157 27.4133 52.0817 27.4178 52.0498 27.4291C52.0179 27.4404 51.9888 27.4583 51.9644 27.4815C51.9233 27.5276 51.8891 27.5795 51.8631 27.6353H51.6011L51.8177 25.9847Z" fill="white"/>
<path d="M58.8238 26.46C58.8517 26.3165 58.8849 26.1835 58.9198 26.0607L59.4437 24.1906C59.4672 24.12 59.4853 24.0478 59.4979 23.9746C59.5097 23.9142 59.5156 23.8528 59.5153 23.7914C59.5222 23.7428 59.5143 23.6933 59.4925 23.6492C59.4707 23.6052 59.4361 23.5686 59.3931 23.5442C59.2551 23.4941 59.1087 23.4706 58.9618 23.4751V23.2158C59.6446 23.1536 60.1527 23.0931 60.495 23.043C60.8373 22.9928 61.0189 22.9565 61.0486 22.9565L60.598 24.4602L60.1178 25.976C60.0968 26.0469 60.0689 26.1402 60.041 26.2526C60.0035 26.3787 59.9801 26.5086 59.9711 26.6398C59.9691 26.6713 59.9737 26.7029 59.9845 26.7326C59.9953 26.7623 60.0121 26.7895 60.034 26.8126C60.0578 26.833 60.0856 26.8486 60.1155 26.8584C60.1455 26.8682 60.1771 26.872 60.2086 26.8696C60.3658 26.8696 60.5736 26.7158 60.8285 26.4116C61.1254 26.0377 61.3681 25.6247 61.5498 25.1844C61.6951 24.8553 61.8234 24.519 61.9339 24.1768C62.0108 23.9463 62.1237 23.577 62.2727 23.0689H63.4497L63.069 24.4326C63.0551 24.4827 62.9887 24.7264 62.8665 25.162C62.7442 25.5975 62.6779 25.8533 62.6552 25.9415C62.6063 26.1143 62.5626 26.2681 62.5277 26.4151C62.5005 26.5134 62.483 26.6141 62.4753 26.7158C62.4717 26.7668 62.4873 26.8172 62.519 26.8575C62.5335 26.8735 62.5513 26.8862 62.5712 26.8948C62.591 26.9034 62.6125 26.9078 62.6342 26.9076C62.7372 26.9076 62.8752 26.797 63.0533 26.5723C63.1526 26.4464 63.2436 26.3141 63.3257 26.1765L63.5335 26.3027C63.3502 26.6476 63.1046 26.9563 62.8088 27.2136C62.5686 27.4461 62.2488 27.5806 61.913 27.5904C61.8078 27.6023 61.7013 27.5884 61.6029 27.5498C61.5045 27.5112 61.4173 27.4491 61.3489 27.3691C61.2723 27.2522 61.235 27.1143 61.2424 26.9751C61.24 26.8398 61.2529 26.7047 61.2808 26.5723C61.307 26.4652 61.3664 26.263 61.4555 25.9709L61.4328 25.9605C61.1665 26.3689 60.8669 26.7551 60.5369 27.1151C60.4121 27.2571 60.2596 27.3729 60.0886 27.4555C59.9176 27.538 59.7315 27.5857 59.5415 27.5956C59.3858 27.5986 59.2329 27.5546 59.1032 27.4694C58.9942 27.3971 58.907 27.2968 58.851 27.1793C58.795 27.0618 58.7723 26.9315 58.7854 26.8022C58.7886 26.6859 58.8032 26.5701 58.829 26.4565" fill="white"/>
<path d="M66.8934 27.4815C67.1658 26.5412 67.3893 25.7347 67.5639 25.0617C67.6987 24.6376 67.7992 24.2036 67.8643 23.7637C67.8712 23.7166 67.863 23.6685 67.8407 23.6263C67.8185 23.5841 67.7833 23.55 67.7403 23.5286C67.607 23.4853 67.4665 23.4677 67.3265 23.4768V23.2175C67.7491 23.191 68.1059 23.157 68.3969 23.1156C68.589 23.0896 68.9086 23.0361 69.3609 22.9514L68.8038 24.6953L68.8475 24.7057C69.0463 24.3028 69.2751 23.9152 69.532 23.5459C69.8324 23.1501 70.1205 22.9496 70.4052 22.9496C70.487 22.9433 70.5692 22.9576 70.644 22.9912C70.7188 23.0247 70.7838 23.0764 70.833 23.1415C70.9234 23.2665 70.9716 23.4164 70.971 23.5701C70.9731 23.7516 70.9195 23.9294 70.8173 24.08C70.7725 24.1513 70.7095 24.2097 70.6348 24.2495C70.56 24.2892 70.476 24.3088 70.3912 24.3064C70.3147 24.3057 70.2391 24.2893 70.1694 24.258C70.0996 24.2252 70.0395 24.1752 69.9948 24.1128L69.9022 23.9988C69.8888 23.9794 69.8716 23.9629 69.8516 23.9504C69.8318 23.9364 69.8077 23.9297 69.7835 23.9314C69.656 23.9314 69.4884 24.1042 69.2858 24.4395C69.0852 24.7701 68.9134 25.117 68.7724 25.4765C68.6746 25.7202 68.5541 26.0642 68.4109 26.5136C68.2677 26.963 68.1629 27.2844 68.0966 27.4815H66.8934Z" fill="white"/>
<path d="M76.9224 23.5736C76.8957 23.5046 76.8473 23.4459 76.7845 23.4061C76.7216 23.3663 76.6476 23.3475 76.5731 23.3524C76.2238 23.3524 75.8449 23.7758 75.4677 24.6175C75.1336 25.3631 74.9671 25.9357 74.9683 26.3356C74.9645 26.4804 75.0059 26.6228 75.087 26.7435C75.1195 26.7967 75.1653 26.8406 75.2202 26.8709C75.275 26.9012 75.3368 26.9168 75.3996 26.9163C75.7279 26.9163 76.101 26.4831 76.519 25.6166C76.8176 24.8872 76.9678 24.3116 76.9678 23.8882C76.9701 23.7817 76.9529 23.6757 76.9171 23.5753L76.9224 23.5736ZM74.6173 24.1094C75.218 23.3316 75.8309 22.9427 76.4509 22.9427C76.555 22.9333 76.6599 22.948 76.7572 22.9858C76.8546 23.0236 76.9416 23.0835 77.0114 23.1605C77.102 23.2986 77.166 23.4522 77.2 23.6133L77.3746 23.0948L78.4119 23.0222L77.7623 25.321C77.6715 25.6459 77.6052 25.8965 77.5667 26.0711C77.4958 26.3004 77.4518 26.537 77.4358 26.7763C77.4331 26.7982 77.4353 26.8203 77.4423 26.8412C77.4492 26.8621 77.4607 26.8813 77.4759 26.8973C77.4875 26.9082 77.5012 26.9168 77.5162 26.9224C77.5312 26.9281 77.5472 26.9307 77.5632 26.9301C77.6271 26.9291 77.6887 26.9065 77.7379 26.8662C77.8056 26.8107 77.8676 26.7488 77.923 26.6812C77.9562 26.6449 78.0103 26.5793 78.0889 26.479C78.1675 26.3788 78.2286 26.3062 78.2827 26.2336L78.4905 26.3822C78.2684 26.7206 78.0063 27.0316 77.7099 27.3086C77.5147 27.5081 77.2498 27.6262 76.9695 27.6388C76.8064 27.634 76.65 27.5729 76.5277 27.4659C76.4541 27.405 76.3963 27.3276 76.3589 27.2401C76.3216 27.1527 76.3058 27.0577 76.3129 26.963C76.3381 26.7564 76.3807 26.5523 76.4404 26.3528C76.4544 26.3407 76.4404 26.3632 76.4055 26.422C76.3705 26.4807 76.3094 26.5637 76.2308 26.6761C76.0638 26.931 75.8548 27.1565 75.6126 27.3432C75.3873 27.5218 75.1068 27.6183 74.8181 27.6163C74.5458 27.6121 74.2847 27.5087 74.0846 27.3259C73.8576 27.1289 73.7458 26.797 73.7458 26.3304C73.7482 25.6079 74.0404 24.867 74.6225 24.1077L74.6173 24.1094Z" fill="white"/>
<path d="M81.8574 27.4815L82.7305 24.3358C82.7654 24.2062 82.7916 24.1059 82.8091 24.0333C82.8353 23.9395 82.8522 23.8434 82.8597 23.7464C82.8597 23.6254 82.8196 23.5528 82.7445 23.5235C82.6051 23.4859 82.461 23.4684 82.3166 23.4716V23.2123C82.7288 23.1864 83.0466 23.157 83.2736 23.1242C83.5006 23.0914 83.8429 23.0326 84.2969 22.9514L83.7102 24.7731L83.7346 24.7886C83.7172 24.8025 83.8184 24.6573 84.0298 24.3479C84.207 24.0792 84.4093 23.8274 84.634 23.596C84.8091 23.4131 85.0089 23.2549 85.2277 23.1259C85.4266 23.0132 85.6517 22.9536 85.8808 22.9531C86.0757 22.9456 86.267 23.0068 86.4204 23.1259C86.5003 23.1996 86.562 23.2904 86.6007 23.3914C86.6395 23.4924 86.6543 23.6008 86.644 23.7084C86.644 23.9573 86.4978 24.5081 86.2056 25.3607C85.9105 26.2094 85.7621 26.6657 85.7621 26.7262C85.7607 26.7512 85.7648 26.7762 85.7742 26.7995C85.7835 26.8227 85.7979 26.8437 85.8162 26.861C85.8458 26.8869 85.8833 26.9021 85.9227 26.9042C86.0083 26.9042 86.141 26.7953 86.3122 26.5775C86.403 26.4635 86.5008 26.32 86.609 26.1506L86.8256 26.2889C86.6502 26.593 86.443 26.8781 86.2074 27.1393C86.0912 27.2736 85.9483 27.3827 85.7875 27.4597C85.6267 27.5368 85.4516 27.5801 85.2731 27.5869C85.1023 27.59 84.9355 27.5358 84.7999 27.4331C84.7272 27.3751 84.6702 27.3003 84.6336 27.2153C84.5971 27.1303 84.5822 27.0377 84.5903 26.9457C84.5997 26.7385 84.6337 26.5331 84.6916 26.3338C84.7614 26.0625 84.8383 25.7877 84.9256 25.5007L85.3761 24.0281C85.3892 23.9995 85.3986 23.9693 85.4041 23.9383C85.4105 23.9134 85.4135 23.8878 85.4128 23.8622C85.4168 23.8323 85.412 23.8019 85.399 23.7746C85.386 23.7474 85.3653 23.7244 85.3395 23.7084C85.2899 23.6789 85.2331 23.6634 85.1753 23.6635C84.9727 23.6635 84.7486 23.8202 84.503 24.1336C84.2694 24.4238 84.0658 24.7365 83.8953 25.0669C83.727 25.3975 83.584 25.7401 83.4674 26.0919C83.3557 26.4375 83.2177 26.9007 83.0606 27.4832L81.8574 27.4815Z" fill="white"/>
<path d="M91.2663 23.9556C91.8618 23.2798 92.5115 22.941 93.21 22.941C93.5154 22.9182 93.8177 23.015 94.0517 23.2106C94.1403 23.2876 94.2116 23.3822 94.2609 23.4882C94.3103 23.5942 94.3365 23.7092 94.3381 23.8259C94.3431 23.918 94.3288 24.0101 94.2961 24.0963C94.2633 24.1826 94.2128 24.2612 94.1477 24.3272C94.09 24.3867 94.0205 24.4338 93.9436 24.4656C93.8667 24.4975 93.784 24.5133 93.7007 24.5121C93.5629 24.5094 93.4298 24.462 93.3217 24.3773C93.2603 24.3332 93.2111 24.2744 93.1787 24.2064C93.1463 24.1384 93.1319 24.0634 93.1366 23.9884C93.1337 23.9332 93.142 23.8779 93.1611 23.8259C93.1872 23.7663 93.2176 23.7086 93.2519 23.6531L93.2955 23.5805C93.3155 23.5558 93.332 23.5284 93.3444 23.4993C93.351 23.4792 93.3546 23.4582 93.3549 23.437C93.3554 23.4112 93.3486 23.3857 93.3354 23.3635C93.3221 23.3412 93.3029 23.323 93.2798 23.3109C93.2233 23.2797 93.1594 23.2642 93.0947 23.2659C92.7385 23.2659 92.3997 23.63 92.0784 24.3583C91.823 24.889 91.6775 25.4649 91.6505 26.0521C91.6464 26.2488 91.6895 26.4437 91.7763 26.6207C91.8307 26.7372 91.9193 26.8347 92.0304 26.9007C92.1416 26.9666 92.2703 26.998 92.3997 26.9906C92.6247 26.9857 92.8408 26.9032 93.0109 26.7573C93.2399 26.5684 93.4389 26.3464 93.6011 26.0988L93.8788 26.282C93.6493 26.6162 93.3834 26.9246 93.086 27.2015C92.7383 27.4834 92.3008 27.6341 91.8514 27.6267C91.4847 27.6234 91.1313 27.491 90.8542 27.2533C90.5451 27.001 90.3897 26.619 90.3897 26.0988C90.4023 25.3035 90.7135 24.5413 91.2629 23.9607" fill="white"/>
<path d="M100.719 23.3783C100.696 23.3391 100.662 23.3073 100.621 23.2865C100.58 23.2657 100.534 23.2568 100.489 23.2608C100.256 23.2608 100.026 23.4492 99.8022 23.8173C99.5298 24.3054 99.3282 24.8291 99.2032 25.3729C99.7743 25.2432 100.181 24.9978 100.426 24.6331C100.637 24.3488 100.762 24.0105 100.785 23.6583C100.788 23.56 100.767 23.4625 100.726 23.3731L100.719 23.3783ZM98.6584 23.9729C99.2556 23.2815 99.9087 22.9358 100.621 22.9358C100.894 22.9249 101.163 23.0039 101.386 23.1605C101.485 23.2347 101.565 23.3317 101.617 23.4432C101.67 23.5546 101.694 23.6771 101.688 23.8C101.688 24.2148 101.455 24.6078 100.99 24.9788C100.451 25.3766 99.814 25.6222 99.1456 25.6892C99.1282 25.7894 99.1124 25.881 99.102 25.9674C99.0915 26.0538 99.088 26.1264 99.088 26.1783C99.0796 26.3418 99.1095 26.5051 99.1753 26.6553C99.2299 26.7633 99.3165 26.8521 99.4236 26.9099C99.5307 26.9677 99.653 26.9916 99.7743 26.9785C99.9121 26.9693 100.047 26.9319 100.169 26.8689C100.292 26.8058 100.4 26.7184 100.487 26.6121C100.641 26.4491 100.778 26.2707 100.895 26.0798L101.185 26.2526C100.999 26.5885 100.763 26.8954 100.487 27.1635C100.15 27.4651 99.71 27.6294 99.2556 27.6232C98.8915 27.6175 98.5412 27.484 98.2672 27.2464C97.9442 26.9941 97.7922 26.6173 97.7922 26.0988C97.7922 25.3556 98.0786 24.6487 98.6514 23.978L98.6584 23.9729Z" fill="white"/>
<path d="M114.448 23.8173C114.73 23.6445 114.869 23.2504 114.869 22.6264C114.883 22.3173 114.829 22.0089 114.71 21.7225C114.525 21.3509 114.186 21.1608 113.699 21.1608C113.518 21.1403 113.335 21.1753 113.175 21.261C113.13 21.3017 113.095 21.3523 113.074 21.4087C113.052 21.4651 113.043 21.5258 113.05 21.5859V24.0904C113.702 24.08 114.167 23.989 114.447 23.8173H114.448ZM110.565 27.2326C110.811 27.2456 111.056 27.1809 111.263 27.0477C111.387 26.9353 111.448 26.702 111.448 26.3356V21.9783C111.448 21.5998 111.373 21.3509 111.23 21.2368C111.132 21.159 110.912 21.1072 110.573 21.0795V20.8289H113.774C114.319 20.8117 114.864 20.8817 115.386 21.0363C116.182 21.3163 116.584 21.8158 116.584 22.5417C116.592 22.7875 116.539 23.0314 116.429 23.252C116.32 23.4726 116.157 23.6632 115.955 23.8069C115.656 24.0288 115.309 24.1795 114.941 24.2477L117.056 27.0511C117.099 27.1164 117.159 27.1689 117.23 27.2032C117.304 27.2297 117.381 27.2448 117.459 27.2482V27.4815H115.381L113.062 24.4032V26.3321C113.062 26.6778 113.119 26.9094 113.236 27.0235C113.353 27.1375 113.586 27.2101 113.935 27.2222V27.4815H110.566L110.565 27.2326Z" fill="white"/>
<path d="M123.517 24.7057C123.532 24.298 123.486 23.8903 123.381 23.4958C123.348 23.3902 123.28 23.2986 123.188 23.2359C123.096 23.1731 122.986 23.1429 122.874 23.1501C122.754 23.1485 122.637 23.1871 122.542 23.2596C122.447 23.332 122.379 23.4342 122.35 23.5494C122.237 23.9273 122.181 24.3201 122.186 24.7143L123.517 24.7057ZM121.402 23.463C121.589 23.2618 121.817 23.1018 122.071 22.9934C122.324 22.8851 122.598 22.8307 122.874 22.8338C123.201 22.8334 123.521 22.9219 123.8 23.0896C124.085 23.2569 124.316 23.5016 124.465 23.7948C124.596 24.0746 124.678 24.3744 124.708 24.6815C124.727 24.8098 124.738 24.9391 124.741 25.0687H122.202C122.216 25.4178 122.281 25.7631 122.396 26.0936C122.593 26.6346 122.934 26.9059 123.424 26.9059C123.662 26.9041 123.892 26.8279 124.083 26.6882C124.258 26.5611 124.417 26.4143 124.558 26.2509L124.786 26.3909C124.537 26.831 124.166 27.191 123.716 27.4279C123.433 27.5569 123.123 27.6207 122.811 27.6146C122.296 27.6057 121.803 27.4016 121.435 27.0442C121.006 26.6628 120.792 26.0544 120.793 25.219C120.793 24.4654 120.996 23.8801 121.402 23.463Z" fill="white"/>
<path d="M131.056 26.7901C131.23 26.6017 131.311 26.4686 131.311 26.3909V23.9884C131.278 23.8499 131.201 23.7252 131.092 23.6323C131.018 23.554 130.928 23.4925 130.827 23.4519C130.727 23.4113 130.619 23.3927 130.511 23.3973C130.161 23.3973 129.917 23.6375 129.793 24.1232C129.711 24.4849 129.675 24.8554 129.686 25.2259C129.676 25.6093 129.709 25.9925 129.786 26.3684C129.907 26.8333 130.135 27.0598 130.485 27.0598C130.596 27.0572 130.706 27.0303 130.806 26.981C130.906 26.9317 130.993 26.8612 131.063 26.7746L131.056 26.7901ZM128.792 23.5027C128.949 23.2947 129.152 23.1254 129.385 23.0082C129.619 22.8909 129.877 22.8289 130.139 22.8269C130.385 22.8241 130.628 22.8906 130.837 23.0188C131.012 23.1386 131.171 23.2784 131.312 23.4353V21.636C131.312 21.3889 131.263 21.2333 131.166 21.1728C130.976 21.0934 130.772 21.0562 130.567 21.0639V20.8289H132.706V26.498C132.69 26.6484 132.732 26.7992 132.825 26.9198C132.956 27.0172 133.116 27.0688 133.28 27.0667V27.2914C132.723 27.3449 132.362 27.3881 132.201 27.4141C132.04 27.44 131.754 27.5109 131.345 27.6215V26.9733C131.191 27.1389 131.015 27.2831 130.822 27.402C130.582 27.5468 130.307 27.6228 130.027 27.6215C129.783 27.6206 129.542 27.5653 129.323 27.4597C129.103 27.354 128.911 27.2008 128.759 27.0114C128.399 26.6046 128.22 26.0521 128.22 25.3538C128.224 24.5749 128.413 23.959 128.787 23.5062L128.792 23.5027Z" fill="white"/>
<path d="M139.434 24.7057C139.449 24.298 139.403 23.8903 139.298 23.4958C139.265 23.39 139.197 23.2984 139.105 23.2357C139.012 23.173 138.902 23.1428 138.79 23.1501C138.67 23.1485 138.553 23.1871 138.458 23.2596C138.363 23.332 138.295 23.4342 138.266 23.5494C138.152 23.9273 138.097 24.3201 138.102 24.7143L139.434 24.7057ZM137.321 23.463C137.507 23.2614 137.734 23.1011 137.988 22.9926C138.241 22.8842 138.514 22.8301 138.79 22.8338C139.119 22.8347 139.441 22.9248 139.721 23.0942C140.002 23.2637 140.23 23.506 140.381 23.7948C140.513 24.0744 140.595 24.3743 140.625 24.6815C140.644 24.8098 140.654 24.9391 140.657 25.0686H138.118C138.129 25.4193 138.193 25.7664 138.306 26.0988C138.5 26.6398 138.844 26.9111 139.331 26.9111C139.57 26.9094 139.802 26.8332 139.995 26.6933C140.168 26.5655 140.326 26.4189 140.466 26.2561L140.695 26.3961C140.446 26.837 140.074 27.1972 139.623 27.4331C139.34 27.5625 139.031 27.6264 138.72 27.6198C138.205 27.6105 137.712 27.4064 137.344 27.0494C136.917 26.668 136.703 26.0596 136.703 25.2242C136.708 24.4672 136.914 23.8801 137.321 23.463Z" fill="white"/>
<path d="M144.025 27.2481C144.182 27.2476 144.336 27.2007 144.465 27.1133C144.556 27.039 144.602 26.8886 144.602 26.6518V23.4509H144.025V23.017H144.602V22.6506C144.587 22.2632 144.66 21.8776 144.816 21.522C145.094 20.9723 145.602 20.6941 146.344 20.6941C146.698 20.6834 147.047 20.7766 147.347 20.962C147.471 21.0333 147.575 21.1358 147.647 21.2593C147.719 21.3828 147.757 21.5228 147.757 21.6654C147.76 21.747 147.746 21.8284 147.716 21.9044C147.686 21.9805 147.64 22.0497 147.582 22.1079C147.521 22.1659 147.449 22.2111 147.37 22.2408C147.291 22.2705 147.206 22.2841 147.121 22.2807C146.97 22.2833 146.824 22.2282 146.713 22.1269C146.658 22.0815 146.614 22.0249 146.584 21.961C146.554 21.8971 146.538 21.8275 146.538 21.757C146.544 21.6343 146.582 21.5151 146.648 21.4113C146.696 21.3453 146.733 21.2717 146.756 21.1936C146.761 21.1622 146.755 21.1302 146.74 21.1024C146.724 21.0746 146.7 21.0526 146.671 21.0397C146.61 21.0178 146.546 21.0061 146.481 21.0052C146.412 21.001 146.343 21.0113 146.279 21.0354C146.215 21.0595 146.157 21.097 146.109 21.1452C146.018 21.2402 145.974 21.439 145.974 21.7467V23.0205H146.847V23.4543H145.974V26.4773C145.974 26.823 146.023 27.0252 146.124 27.1029C146.226 27.1807 146.442 27.2291 146.783 27.2516V27.4815H144.025V27.2481Z" fill="white"/>
<path d="M151.01 20.9136C151.157 20.7808 151.35 20.7093 151.549 20.7141C151.748 20.7188 151.938 20.7993 152.078 20.9389C152.218 21.0785 152.299 21.2663 152.303 21.4632C152.306 21.66 152.233 21.8508 152.098 21.9956C151.99 22.1019 151.853 22.1741 151.703 22.2031C151.554 22.2321 151.399 22.2166 151.259 22.1585C151.118 22.1004 150.998 22.0024 150.914 21.8768C150.829 21.7511 150.785 21.6036 150.785 21.4528C150.784 21.3525 150.803 21.253 150.842 21.1602C150.88 21.0675 150.938 20.9836 151.01 20.9136ZM150.347 27.2568C150.477 27.2462 150.602 27.2008 150.708 27.1254C150.763 27.0617 150.804 26.9876 150.829 26.9077C150.854 26.8278 150.862 26.7437 150.853 26.6605V23.7568C150.869 23.613 150.832 23.4684 150.75 23.3489C150.637 23.2516 150.496 23.1913 150.347 23.176V22.941H152.257V26.6795C152.238 26.8247 152.272 26.972 152.353 27.0943C152.459 27.1739 152.585 27.224 152.717 27.2395V27.4815H150.356L150.347 27.2568Z" fill="white"/>
<path d="M156.096 27.2481C156.241 27.2392 156.381 27.1881 156.497 27.1012C156.547 27.0384 156.585 26.9663 156.606 26.8892C156.628 26.812 156.635 26.7314 156.625 26.6519V23.7568C156.641 23.6098 156.603 23.4619 156.518 23.3403C156.399 23.2427 156.25 23.1878 156.096 23.1847V22.9496H157.98V23.6583C158.137 23.4214 158.343 23.2204 158.584 23.0689C158.826 22.9124 159.11 22.8306 159.4 22.8338C159.761 22.8124 160.117 22.9294 160.393 23.1605C160.626 23.3783 160.743 23.7614 160.743 24.3099V26.6881C160.732 26.7636 160.737 26.8403 160.757 26.9139C160.777 26.9875 160.811 27.0564 160.858 27.1168C160.97 27.1953 161.102 27.2409 161.238 27.2481V27.4815H158.912V27.2447C159.045 27.228 159.17 27.178 159.277 27.0995C159.359 26.9772 159.392 26.8297 159.372 26.6847V24.3064C159.38 24.1356 159.357 23.9648 159.305 23.8017C159.274 23.7076 159.211 23.6267 159.128 23.5719C159.044 23.517 158.944 23.4915 158.844 23.4993C158.668 23.5004 158.499 23.5663 158.369 23.6842C158.24 23.7906 158.127 23.9159 158.036 24.0558V26.6881C158.016 26.8338 158.052 26.9816 158.135 27.103C158.241 27.1822 158.367 27.2323 158.499 27.2481V27.4815H156.096V27.2481Z" fill="white"/>
<path d="M167.398 24.7057C167.41 24.298 167.363 23.8906 167.26 23.4958C167.227 23.3901 167.158 23.2984 167.066 23.2357C166.974 23.173 166.863 23.1428 166.752 23.1501C166.632 23.1485 166.514 23.1871 166.419 23.2596C166.324 23.332 166.257 23.4342 166.228 23.5494C166.113 23.9271 166.058 24.32 166.063 24.7143L167.398 24.7057ZM165.279 23.463C165.466 23.2618 165.694 23.1018 165.948 22.9934C166.201 22.8851 166.475 22.8307 166.752 22.8338C167.077 22.833 167.397 22.9215 167.675 23.0896C167.962 23.2563 168.193 23.5012 168.342 23.7948C168.474 24.0743 168.557 24.3743 168.585 24.6815C168.603 24.8099 168.614 24.9391 168.618 25.0687H166.081C166.093 25.418 166.158 25.7636 166.275 26.0936C166.469 26.634 166.811 26.9048 167.302 26.9059C167.539 26.9045 167.769 26.8282 167.96 26.6882C168.135 26.5603 168.295 26.4136 168.437 26.2509L168.664 26.3909C168.416 26.8317 168.044 27.1919 167.593 27.4279C167.309 27.557 166.999 27.6208 166.687 27.6146C166.172 27.6047 165.681 27.4007 165.313 27.0442C164.888 26.6674 164.675 26.0642 164.675 25.2346C164.675 24.4706 164.877 23.8801 165.279 23.463Z" fill="white"/>
<path d="M174.933 26.7901C175.108 26.6017 175.186 26.4686 175.186 26.3909V23.9884C175.155 23.8496 175.079 23.7247 174.97 23.6323C174.895 23.554 174.805 23.4925 174.705 23.4519C174.604 23.4113 174.496 23.3927 174.388 23.3973C174.039 23.3973 173.796 23.6375 173.667 24.1232C173.589 24.4855 173.555 24.8557 173.566 25.2259C173.554 25.6092 173.587 25.9925 173.663 26.3684C173.78 26.8293 174.013 27.0598 174.362 27.0598C174.473 27.0567 174.582 27.0296 174.682 26.9803C174.781 26.931 174.869 26.8608 174.938 26.7746L174.933 26.7901ZM172.668 23.5027C172.825 23.2947 173.029 23.1255 173.263 23.0083C173.497 22.8911 173.755 22.829 174.018 22.8269C174.264 22.824 174.507 22.8905 174.716 23.0188C174.891 23.1378 175.05 23.2777 175.19 23.4353V21.636C175.19 21.3889 175.142 21.2333 175.045 21.1728C174.855 21.0937 174.65 21.0565 174.444 21.0639V20.8289H176.587V26.498C176.57 26.648 176.611 26.7987 176.702 26.9198C176.834 27.016 176.994 27.0675 177.158 27.0667V27.2914C176.604 27.3449 176.243 27.3881 176.08 27.4141C175.918 27.44 175.635 27.5109 175.224 27.6215V26.9733C175.072 27.1371 174.9 27.2811 174.711 27.402C174.471 27.5471 174.194 27.6231 173.913 27.6215C173.669 27.6201 173.429 27.5646 173.209 27.459C172.99 27.3534 172.797 27.2004 172.645 27.0114C172.288 26.6046 172.109 26.0521 172.107 25.3538C172.105 24.5749 172.29 23.959 172.663 23.5062L172.668 23.5027Z" fill="white"/>
<path d="M178.982 17.6175H33.9147V18.3141H178.982V17.6175Z" fill="white"/>
</svg>
