<svg width="30" height="28" viewBox="0 0 30 28" fill="none" xmlns="http://www.w3.org/2000/svg">
<path d="M24.3276 14.0225C24.3362 15.8833 23.7866 17.7048 22.7483 19.2562C21.71 20.8076 20.2298 22.019 18.4953 22.7369C16.7607 23.4549 14.8499 23.6471 13.0049 23.2892C11.1599 22.9313 9.46369 22.0394 8.13131 20.7265C6.79892 19.4136 5.89027 17.7387 5.5205 15.9142C5.15073 14.0897 5.33647 12.1976 6.05419 10.4777C6.77191 8.75775 7.98931 7.28739 9.55214 6.25289C11.115 5.2184 12.9529 4.66634 14.833 4.66667C17.3465 4.663 19.7586 5.64738 21.5391 7.4034C23.3195 9.15943 24.3225 11.5434 24.3276 14.0311" fill="white"/>
<path fill-rule="evenodd" clip-rule="evenodd" d="M6.19584 23.6168L3.29875 22.2842L2.76263 19.0901L5.51129 17.1854L10.2944 17.2684L9.03007 21.522L6.19584 23.6168Z" fill="white"/>
<path fill-rule="evenodd" clip-rule="evenodd" d="M23.4719 4.36075L26.369 5.69334L26.9034 8.88915L24.1547 10.7938L19.3716 10.7074L20.6377 6.45729L23.4719 4.36075Z" fill="white"/>
<path fill-rule="evenodd" clip-rule="evenodd" d="M15.9244 1.24445L19.0538 0.613586L21.4165 2.8605L20.3635 6.00445L16.471 8.75087L14.9168 4.59235L15.9244 1.24445Z" fill="white"/>
<path fill-rule="evenodd" clip-rule="evenodd" d="M8.32806 3.04545L10.4481 0.686188L13.7101 1.09236L14.7736 4.23113L13.3242 8.73014L9.55396 6.31903L8.32806 3.04545Z" fill="white"/>
<path fill-rule="evenodd" clip-rule="evenodd" d="M2.93726 8.74742L3.3424 5.62248L6.27092 4.14816L8.941 6.15137L10.3101 10.6746L5.82038 10.7731L2.93726 8.74742Z" fill="white"/>
<path fill-rule="evenodd" clip-rule="evenodd" d="M13.7153 26.7123L10.593 27.3812L8.20056 25.162L9.21166 22.0094L13.071 19.2128L14.6793 23.3489L13.7153 26.7123Z" fill="white"/>
<path fill-rule="evenodd" clip-rule="evenodd" d="M21.4427 25.124L19.2703 27.4331L16.0222 26.9647L15.0216 23.8017L16.5618 19.3356L20.2832 21.8227L21.4427 25.124Z" fill="white"/>
<path fill-rule="evenodd" clip-rule="evenodd" d="M26.7252 19.2025L26.3463 22.3291L23.43 23.8294L20.7407 21.8469L19.3314 17.3375L23.8211 17.201L26.7252 19.2025Z" fill="white"/>
<path fill-rule="evenodd" clip-rule="evenodd" d="M2.23179 16.7896L0.667114 14.0397L2.12352 11.1326L5.47989 11.1723L9.313 13.9931L5.76978 16.7187L2.23179 16.7896Z" fill="white"/>
<path fill-rule="evenodd" clip-rule="evenodd" d="M27.5145 16.7896L29.0775 14.0397L27.6211 11.1326L24.2647 11.1723L20.4281 13.9931L23.9748 16.7187L27.5145 16.7896Z" fill="white"/>
<path d="M2.22303 16.6254H27.5652L28.9151 14L27.5704 11.3694L2.22303 11.3607L0.831234 14L2.22303 16.6254ZM28.021 17.3617H27.794L1.77423 17.3513L0 14L1.77598 10.6348H28.0245L29.7446 14L28.021 17.3617Z" fill="#7E8185"/>
<path d="M16.113 26.7331L19.0625 27.217L21.2069 25.162L13.6473 1.3084L10.6786 0.789877L8.55682 2.87778L16.113 26.7331ZM19.307 28L15.542 27.376L7.71686 2.67037L10.4254 0L14.2218 0.66716L22.0469 25.3832L19.307 28Z" fill="#7E8185"/>
<path d="M8.4782 25.1343L10.6157 27.1963L13.5651 26.7279L21.2488 2.90891L19.1183 0.798535L16.1689 1.31705L8.4782 25.1343ZM10.3642 27.9775L7.64172 25.3383L15.5961 0.670634L19.3838 0.0121155L22.1027 2.70668L14.1449 27.3743L10.3642 27.9775Z" fill="#7E8185"/>
<path d="M3.47508 22.082L6.1242 23.4422L26.699 8.8511L26.2659 5.91283L23.5854 4.58024L3.00882 19.1731L3.47508 22.082ZM6.18707 24.2978L2.79403 22.5607L2.20728 18.8395L2.39413 18.7116L23.5242 3.7316L26.9522 5.4237L27.504 9.18468L27.3207 9.31431L6.18707 24.2978Z" fill="#7E8185"/>
<path d="M3.14334 8.64198L23.444 23.6064L26.1193 22.2928L26.6344 19.3909L6.33906 4.4247L3.62008 5.71754L3.14334 8.64198ZM23.3654 24.4603L2.3418 8.95655L2.953 5.22668L6.42288 3.5726L27.4447 19.0711L26.7899 22.782L23.3654 24.4603Z" fill="#7E8185"/>
<path fill-rule="evenodd" clip-rule="evenodd" d="M14.8801 10.7575L16.2335 9.87604L16.8045 11.3746L18.4269 11.4454L17.9973 12.9889L19.2651 13.9879L17.9973 14.9852L18.4269 16.5304L16.8045 16.6012L16.2335 18.0997L14.8801 17.2165L13.5268 18.0997L12.954 16.6012L11.3317 16.5304L11.763 14.9852L10.4969 13.9879L11.763 12.9889L11.3317 11.4454L12.954 11.3746L13.5268 9.87604L14.8801 10.7575Z" fill="white"/>
<path d="M14.8801 16.9901L16.1392 17.8111L16.6631 16.4163L18.1666 16.3489L17.7685 14.9178L18.9455 13.9879L17.7685 13.0597L18.1666 11.6234L16.6631 11.5578L16.1392 10.175L14.8801 10.9926L13.621 10.1681L13.0972 11.5508L11.5919 11.6165L11.99 13.0528L10.8148 13.981L11.99 14.9108L11.5919 16.342L13.0972 16.4197L13.621 17.8146L14.8801 16.9901ZM16.3313 18.3867L14.8801 17.4568L13.429 18.3953L12.8143 16.7931L11.0837 16.717L11.543 15.0664L10.1861 13.9965L11.543 12.9284L11.0837 11.2691L12.8143 11.1896L13.429 9.58566L14.8801 10.5294L16.3313 9.58566L16.939 11.1896L18.6748 11.2691L18.212 12.9197L19.5707 13.9879L18.212 15.0578L18.6853 16.7084L16.939 16.7844L16.3313 18.3867Z" fill="white"/>
<path d="M14.372 15.6161L14.8959 16.6082L15.4093 15.6091L16.4274 16.1087L16.2528 15.0008L17.3721 14.8124L16.5671 14.0225L17.3634 13.2205L16.2405 13.0494L16.4152 11.9398L15.4023 12.4583L14.8784 11.4645L14.365 12.4669L13.3504 11.9657L13.5251 13.0753L12.3987 13.2568L13.2072 14.0484L12.3987 14.8469L13.5233 15.0198L13.3487 16.1294L14.372 15.6161ZM14.8959 17.0316L14.2864 15.8736L13.1112 16.4664L13.305 15.177L11.9988 14.98L12.9226 14.0501L11.9866 13.1358L13.2911 12.918L13.078 11.6269L14.2602 12.2094L14.8557 11.0427L15.4687 12.2007L16.6457 11.6045L16.4536 12.8938L17.7581 13.0909L16.8343 14.0225L17.7685 14.9385L16.4676 15.1546L16.6823 16.444L15.4949 15.8615L14.8959 17.0316Z" fill="#7E8185"/>
<path d="M14.978 11.0911H14.7859V16.9746H14.978V11.0911Z" fill="#7E8185"/>
<path d="M17.7633 13.9378H11.9568V14.1296H17.7633V13.9378Z" fill="#7E8185"/>
<path d="M12.6117 15.8684L12.4965 15.7146L17.1206 12.218L17.2394 12.3684L12.6117 15.8684Z" fill="#7E8185"/>
<path d="M17.2009 15.7301L12.4493 12.4963L12.561 12.3407L17.3127 15.5728L17.2009 15.7301Z" fill="#7E8185"/>
<path d="M15.7288 16.8017L13.8481 11.3262L14.0297 11.2657L15.9122 16.7412L15.7288 16.8017Z" fill="#7E8185"/>
<path d="M16.5566 16.456L13.0465 11.7254L13.2037 11.6114L16.7102 16.3437L16.5566 16.456Z" fill="#7E8185"/>
<path d="M14.0908 16.7257L13.9057 16.6652L15.6869 11.2812L15.872 11.3417L14.0908 16.7257Z" fill="#7E8185"/>
<path d="M13.2526 16.456L13.0919 16.3472L16.5112 11.6148L16.6701 11.7254L13.2526 16.456Z" fill="#7E8185"/>
<path d="M17.6707 14.9956L12.0284 13.2551L12.0861 13.0736L17.7336 14.8158L17.6707 14.9956Z" fill="#7E8185"/>
<path d="M12.135 15.037L12.0739 14.8573L17.6218 13.0321L17.6864 13.2136L12.135 15.037Z" fill="#7E8185"/>
<path d="M13.1932 16.3264L14.8801 16.864L16.5671 16.3264L17.6061 14.9074V13.16L16.5671 11.7531L14.8801 11.2156L13.1932 11.7531L12.1454 13.1687V14.9074L13.1932 16.3264ZM14.8801 17.0662L13.0727 16.4854L11.9568 14.9731V13.0978L13.0727 11.5803L14.8801 11.0047L16.6875 11.5803L17.8122 13.0978V14.9731L16.6963 16.4854L14.8801 17.0662Z" fill="#7E8185"/>
</svg>
